<?xml version="1.0"?>
<svg xmlns="http://www.w3.org/2000/svg" version="1.2" baseProfile="tiny"  viewBox="0 0 800 887" stroke-linecap="round" stroke-linejoin="round">
<g class="geojs-28-mun">
<path d="M 571.5232 265.3722 572.832 267.0272 572.8769 267.0695 576.122 269.5233 586.1613 271.7126 589.1823 272.5949 579.3369 285.0236 562.099 308.1481 563.4297 280.0743 563.5333 278.3368 565.8415 262.1939 569.6193 265.3017 570.4535 265.9881 571.5232 265.3722 Z" class="2800100"/>
<path d="M 562.099 308.1481 568.3047 306.1155 558.241 324.95 566.28 329.0993 564.8239 329.9974 556.6148 335.0626 533.6819 340.3801 532.5387 344.2834 532.4024 344.7487 532.3566 344.9045 529.878 353.3694 529.6536 353.3182 526.4533 352.585 525.1887 350.6966 522.8541 351.8643 520.8984 351.2432 514.9883 356.9943 510.7174 351.9201 504.5273 356.3528 503.7284 359.3075 500.8819 359.8235 498.8775 364.5051 494.8363 365.2963 495.6016 366.3154 493.5243 369.402 490.416 369.4989 489.4843 371.0391 486.366 368.9899 483.8661 371.9793 482.4385 371.4316 483.3543 370.474 482.2048 370.4671 479.3695 364.9182 477.1792 365.5306 477.404 366.6715 475.4629 366.1801 475.6376 368.4107 474.2493 368.0743 474.6751 366.2774 471.7917 368.5916 471.4415 367.1202 469.2605 367.8078 469.0225 366.1026 471.5606 364.6815 469.6875 361.1864 471.3969 360.0141 467.0839 356.7474 467.8057 354.2537 466.3809 353.3544 473.3583 349.2346 473.2342 346.0967 470.635 342.5636 474.0144 340.7254 473.1982 336.5054 472.7099 334.5919 474.1858 334.2471 477.4771 331.157 478.1501 328.628 477.9058 323.0698 476.1704 320.6583 476.9051 316.39 473.4895 314.1293 472.5985 311.7692 472.9817 306.1237 475.9866 298.3522 478.7582 296.4406 478.8453 296.3607 478.4922 293.5564 471.199 290.8425 472.1197 281.3186 472.2111 281.2882 512.7425 288.0811 512.9151 288.11 512.967 288.1227 530.4241 292.4005 539.9545 286.6187 544.8136 294.3978 549.9555 298.235 553.6713 309.3472 554.441 311.6485 555.4928 311.1134 562.099 308.1481 Z" class="2800209"/>
<path d="M 522.3093 584.3811 520.5741 591.1806 518.7219 595.6368 519.2241 604.8915 519.5243 615.211 521.9571 622.2656 526.4183 625.6652 513.541 640.3271 481.2845 686.5296 471.145 706.6663 469.8419 709.177 467.2835 706.8746 465.6303 704.4097 467.7867 698.6194 467.8458 691.8388 465.9167 686.5135 467.4185 680.9537 463.423 677.2723 462.7368 674.5276 466.4396 669.641 470.2331 664.7087 475.4496 666.2317 477.9365 668.6742 493.559 628.0858 494.8142 624.8255 498.3367 615.6816 494.2884 606.6064 491.3945 600.1164 493.5224 596.2819 492.0076 593.8809 492.7637 592.3059 495.5572 591.5968 492.9167 588.1801 495.6692 587.4928 501.7198 582.4413 505.4709 582.8665 508.3854 588.2399 512.8231 582.9274 518.5281 582.9161 522.3093 584.3811 Z" class="2800308"/>
<path d="M 312.0057 770.4792 309.1936 772.9071 300.7613 772.6894 291.0626 780.5771 287.2048 782.0474 283.0483 781.6487 278.6785 789.0052 277.3008 788.7676 275.8057 787.4457 275.2109 786.9199 271.0349 783.2274 251.7171 766.1346 251.6952 762.7677 251.6177 750.7517 250.7781 747.2726 248.8607 746.6818 247.891 744.1332 252.9763 735.6019 257.1171 736.2568 260.9911 734.7996 263.8296 735.9958 272.2742 734.1092 275.5975 734.9621 280.2041 733.4266 280.5589 728.8768 284.7115 725.8001 288.6223 722.9027 289.2784 722.4164 289.8856 721.9662 301.9341 713.0396 300.6819 715.7717 297.7129 718.1817 298.6298 720.3908 300.3971 721.2067 301.6604 719.8341 303.3434 722.5654 306.2976 722.5591 308.1435 726.3526 305.8239 735.7058 307.9956 739.3925 311.0417 739.1119 311.2641 741.2377 309.1845 743.525 309.6425 745.6346 311.6336 745.7409 310.7058 750.9179 311.925 752.6126 315.5144 755.6631 315.9258 758.5368 319.1548 759.3455 315.2608 765.7468 313.0552 766.9381 311.6008 767.5676 312.0057 770.4792 Z" class="2800407"/>
<path d="M 415.7062 521.0954 416.9166 523.1433 415.9505 524.4776 415.9155 528.4457 420.5225 532.3274 419.9014 534.3784 431.8401 545.5911 419.9569 554.3753 415.4547 557.7032 400.7696 568.5605 400.4737 568.7795 400.5927 568.8029 400.4685 569.8117 395.8429 569.3344 392.392 571.9951 390.5106 575.8165 386.2554 576.4408 380.9732 575.2436 375.8201 577.611 363.7604 574.1264 362.291 568.7895 363.269 566.1885 363.9681 565.4271 366.9818 559.1637 368.3815 556.2546 374.9496 542.6076 375.5008 541.4622 381.033 529.9712 381.1287 529.7717 385.3667 526.0538 389.0472 523.6316 392.7301 521.209 394.3532 523.2824 400.6439 525.2672 401.8762 525.4443 403.2768 526.0168 401.9349 526.4844 400.2217 528.2918 401.3958 529.3528 408.6888 524.8523 411.1614 521.6491 415.7062 521.0954 Z" class="2800506"/>
<path d="M 592.5383 529.5886 593.9825 530.8107 597.4346 530.0891 600.62 530.6055 575.1941 557.4159 566.594 566.4865 565.1777 568.024 556.3049 578.8695 541.3235 598.09 532.4002 609.9204 529.0661 615.2802 528.2587 616.5804 526.2289 620.227 526.4183 625.6652 521.9571 622.2656 519.5243 615.211 519.2241 604.8915 518.7219 595.6368 520.5741 591.1806 525.6205 591.6533 527.293 588.2713 530.6259 587.2338 530.9626 582.6661 533.7382 582.8768 535.0848 580.5036 538.3537 581.1024 539.84 579.7599 538.7426 577.765 539.8022 575.5217 542.1895 577.4752 544.9229 576.025 545.5598 573.8219 542.7088 570.7571 544.3446 568.7526 545.179 570.3702 546.8051 568.8854 551.0895 569.2602 552.6794 563.4061 554.8406 562.3317 554.7075 558.8523 556.2344 558.8763 560.3022 554.3125 563.8113 553.2141 564.7295 549.4344 568.3376 550.8312 568.9649 549.3552 569.5779 550.0401 581.0693 543.0972 587.7278 532.4442 590.8334 528.6193 592.5383 529.5886 Z" class="2800605"/>
<path d="M 301.9341 713.0396 289.8856 721.9662 289.2784 722.4164 288.6223 722.9027 284.7115 725.8001 280.5589 728.8768 276.3699 727.4539 276.1798 727.3397 275.2111 728.3005 261.6328 726.8046 261.2677 726.623 249.1222 720.2184 248.7514 720.0528 245.0596 723.0344 242.95 718.8138 239.6377 714.9535 233.6121 724.2464 235.5728 720.5917 234.8974 719.2364 232.9804 716.8555 237.8732 712.9549 247.7973 705.1971 247.8323 705.1667 258.9251 695.5384 257.7421 688.1687 264.4091 676.6242 268.7398 679.3454 271.1812 677.04 273.7848 674.9518 271.8401 672.4725 272.5405 671.4381 269.4006 670.2238 269.4713 670.1894 294.0873 658.4022 291.9947 656.1311 292.638 652.1109 300.9998 645.5927 301.8304 644.9452 308.8057 639.5083 309.7751 663.9831 305.2432 682.7166 299.1356 702.0297 301.1738 702.3846 304.2953 702.867 302.0599 704.9838 303.188 707.6369 298.44 707.6688 301.9341 713.0396 Z" class="2800670"/>
<path d="M 754.2504 442.179 759.8701 437.9363 753.502 431.1956 716.4258 425.4673 728.5615 418.5968 741.2706 410.8569 747.5731 402.6628 754.4259 400.224 760.1042 398.5089 757.7266 392.8353 758.6745 392.3701 758.6837 392.3648 768.9706 385.394 771.8475 385.6595 777.5592 390.2585 780.0065 390.4342 783.2267 393.4009 788.8641 405.7861 794.0948 417.7079 794.1589 417.9485 798.9961 425.7456 799 427.346 796.4076 430.6773 796.3777 434.188 793.6658 433.2273 781.0028 434.7289 754.2504 442.179 Z" class="2800704"/>
<path d="M 321.8754 506.6751 322.1057 508.9454 323.9278 509.6597 330.0114 511.9294 333.1718 516.3353 337.8534 517.4487 340.0908 521.0575 342.8445 528.236 343.5793 533.6354 343.3577 539.091 344.1358 540.6399 342.607 542.018 346.9413 544.9332 347.5115 547.6066 346.6543 548.7466 345.3374 547.2702 344.1454 549.4641 346.4634 556.0452 351.6986 568.3262 353.5869 567.9687 354.8634 567.6563 363.9681 565.4271 363.269 566.1885 347.0023 583.8891 340.8987 590.5314 339.5857 589.3117 340.4521 586.1425 334.5251 577.779 331.6998 580.4867 329.3158 580.1316 330.3688 572.5683 327.1258 571.2785 327.0676 569.2226 324.7125 568.2308 323.089 569.1552 318.9479 565.561 316.9163 566.1089 311.5819 563.3521 313.5526 560.4242 311.5945 559.1765 311.6781 559.113 314.8399 556.7127 315.1323 554.4289 312.8056 555.1823 313.516 551.7555 312.2712 552.429 309.1889 550.9653 310.0063 548.2478 307.0643 547.4404 306.5774 548.4048 303.3098 546.4327 300.6694 547.9152 296.8477 545.7937 295.7045 544.4485 293.6314 541.053 295.0347 538.1272 296.2997 536.5249 294.2824 533.9922 291.7736 530.8423 284.3243 520.9611 285.0038 516.9826 283.2426 512.2428 280.8968 510.0932 285.3137 503.5633 288.9442 505.4198 290.1795 507.6171 295.9115 508.2541 301.1417 510.6877 301.1924 510.6761 306.6147 509.4581 308.1234 506.9397 310.5682 506.8456 321.8754 506.6751 Z" class="2801009"/>
<path d="M 571.5232 265.3722 570.4535 265.9881 569.6193 265.3017 565.8415 262.1939 563.5333 278.3368 563.4297 280.0743 562.099 308.1481 555.4928 311.1134 554.441 311.6485 553.6713 309.3472 549.9555 298.235 544.8136 294.3978 539.9545 286.6187 530.4241 292.4005 512.967 288.1227 512.9151 288.11 512.7425 288.0811 472.2111 281.2882 474.4494 280.5464 498.7948 272.4757 509.7065 268.8583 513.7641 264.8933 517.4235 263.9091 518.7158 267.5305 520.2207 267.3602 520.1471 269.304 523.7217 267.2564 525.3503 262.4648 530.6873 257.5464 534.0582 255.0038 541.7817 245.9401 543.9852 245.2434 557.581 240.9454 558.2898 242.299 558.9116 243.4855 560.5147 247.3688 567.638 255.6546 571.5232 265.3722 Z" class="2801108"/>
<path d="M 250.407 66.0986 214.8804 74.1401 200.8464 77.3159 200.6236 77.3662 183.459 81.25 182.8698 81.3834 179.4871 82.1486 178.2378 85.019 174.1087 101.565 175.1454 107.5134 169.3542 116.6188 169.4383 116.9981 169.4013 122.1147 167.2233 124.4239 163.0961 141.7936 165.2571 144.2936 163.3095 147.3936 162.9229 152.4821 163.4642 166.1267 157.1666 171.6614 155.2683 172.8886 150.8845 172.571 149.4629 175.8425 141.0107 182.4265 138.7327 185.8798 138.328 190.1509 133.9296 195.4113 128.383 197.7555 124.9695 197.6806 120.2837 194.0173 111.8399 176.3653 107.6442 174.1566 107.5954 171.6097 110.1601 168.0844 112.795 162.5814 114.1587 153.5011 116.6715 149.9314 118.3011 144.5913 116.7261 141.9916 117.5817 136.7937 121.1055 132.4187 121.0005 130.7639 118.1052 130.0801 107.6101 125.288 99.2411 118.4207 97.9612 114.347 94.4759 113.532 93.0266 111.3584 93.767 108.9729 92.1449 106.6555 89.7825 95.6079 89.496 95.1213 87.9437 86.0099 88.6051 77.0227 89.433 74.9569 95.8623 73.3559 97.0752 66.4224 103.6121 59.9281 107.8944 59.3522 109.6419 62.1223 110.7863 61.7527 110.7198 59.3497 111.8593 58.0585 110.8959 55.589 103.1459 53.3281 102.8637 51.3285 99.7731 50.2965 98.5703 47.7827 91.4207 43.0797 89.1718 38.7424 89.7873 30.5061 90.7528 29.4897 88.9153 27.3633 89.2721 25.7518 92.9576 23.8602 93.7013 26.6241 95.0859 26.7991 97.9494 21.1842 98.8542 17.1004 96.6995 15.6732 97.2117 12.1968 100.6465 9.5941 100.9658 6.7417 105.2152 1 111.233 6.3147 125.4736 9.2132 142.3509 15.624 152.2665 11.5602 155.703 16.1467 174.6462 28.7557 176.6675 30.4221 178.5756 35.4242 182.5999 33.8768 184.9824 34.5653 189.802 41.9845 195.8232 46.5122 198.1573 51.8724 199.277 54.2769 202.0408 54.3196 215.7497 48.7274 219.985 49.2633 230.8835 51.1209 241.613 56.8469 244.2271 58.3362 248.5217 62.0459 250.407 66.0986 Z" class="2801207"/>
<path d="M 529.878 353.3694 534.9085 350.8825 537.6691 351.7466 537.515 362.0606 538.9061 362.7235 544.3351 370.4233 545.3209 369.6285 547.2135 371.0886 543.3839 376.0641 545.8707 380.5089 544.7061 383.9233 548.7349 390.3625 551.7026 393.283 553.2871 399.089 554.1502 400.9673 557.8026 401.2562 562.2847 401.8702 564.6537 404.7898 565.5729 404.2375 561.2941 419.1768 556.5271 435.8304 547.2922 438.6137 547.9956 442.2021 548.0287 442.3699 547.9322 444.4574 540.8914 464.0929 532.9197 486.3362 522.1088 479.7331 505.9666 475.5358 508.7099 472.3539 509.117 468.0023 508.3059 465.1266 504.3192 464.206 505.3646 459.1116 507.377 457.282 505.8425 451.8721 508.0471 438.4105 507.5771 438.3152 502.7409 437.4434 491.5061 439.0292 492.8821 438.0155 493.3692 430.1971 488.7216 422.4352 488.1811 418.2034 484.551 415.2676 478.1799 412.909 478.224 412.3121 479.274 404.902 486.5297 400.37 488.9032 396.8455 489.3147 393.2828 489.8227 388.8893 488.3077 387.9955 486.7644 386.8511 490.1324 384.7358 488.9739 383.1005 491.3742 382.6762 486.6277 382.6916 486.7013 377.6738 480.7934 375.7051 483.8661 371.9793 486.366 368.9899 489.4843 371.0391 490.416 369.4989 493.5243 369.402 495.6016 366.3154 494.8363 365.2963 498.8775 364.5051 500.8819 359.8235 503.7284 359.3075 504.5273 356.3528 510.7174 351.9201 514.9883 356.9943 520.8984 351.2432 522.8541 351.8643 525.1887 350.6966 526.4533 352.585 529.6536 353.3182 529.878 353.3694 Z" class="2801306"/>
<path d="M 280.5348 318.181 274.1368 329.6809 283.7335 344.7803 283.7571 344.8174 288.5594 352.4642 289.6118 370.1188 269.2372 387.053 267.2874 389.1119 244.114 417.3484 225.4669 429.496 225.068 429.756 222.479 432.5534 204.5523 428.446 201.641 430.3384 193.8301 429.5298 188.9499 431.2249 186.1055 433.0961 185.5078 431.2408 187.2227 429.2554 185.3854 427.298 183.7697 418.9825 171.5732 401.0634 167.46 395.5109 170.7887 389.4272 169.9106 385.288 176.7748 382.9338 174.5142 381.8444 175.3343 378.1366 178.3663 376.1727 176.0409 373.5285 178.1588 373.9194 179.6153 371.7008 182.4656 373.0062 183.3392 370.5571 187.2324 367.9233 189.5281 368.1155 198.1872 362.8695 199.0244 360.3903 202.9418 358.4539 209.0004 358.5348 217.1708 355.656 220.9228 353.525 218.1336 347.1126 218.056 346.8599 207.6337 294.6442 212.1491 296.5816 228.4845 291.0584 235.7365 293.3211 235.4835 296.7735 237.9186 299.5508 240.6935 298.0156 243.8143 299.9526 243.9126 300.0552 247.2447 299.0419 255.8568 304.3805 258.0209 307.3315 268.9305 315.3418 271.8712 313.7958 273.2217 317.6263 276.1711 313.4898 278.933 314.8504 278.5854 316.6756 280.5348 318.181 Z" class="2801405"/>
<path d="M 580.5896 509.118 579.5078 508.4939 578.3457 510.8992 575.5265 512.0946 575.3883 514.0705 574.2287 511.9409 572.3641 512.4564 573.2595 505.885 562.1092 505.6809 545.356 504.5813 542.8736 503.9442 532.8328 501.3651 532.9197 486.3362 541.1821 482.3401 545.9128 482.2022 551.1217 482.0501 550.4285 485.0366 554.4521 490.4019 566.1131 492.2237 567.925 498.9607 570.6669 501.8406 576.8107 502.3742 580.5896 509.118 Z" class="2801504"/>
<path d="M 579.6703 349.8193 566.7782 343.0714 565.3492 342.2624 566.28 329.0993 558.241 324.95 568.3047 306.1155 581.0761 307.4571 585.953 307.8047 594.738 308.4303 601.6101 312.7511 603.0181 313.6365 604.7646 322.9598 599.8225 330.1302 591.4632 338.1427 589.0465 338.0222 586.7666 339.7375 579.6703 349.8193 Z" class="2801603"/>
<path d="M 256.3437 849.1642 259.0637 851.0254 259.6326 856.2465 258.0565 856.664 259.2546 858.2475 263.0764 857.4186 263.344 862.1003 265.302 864.7727 263.0794 864.4162 260.1487 867.1177 256.7785 864.558 255.867 869.278 254.2926 870.9992 251.086 870.9971 252.401 875.403 247.7811 882.2982 248.8201 884.2719 247.3727 886.2645 242.5555 883.4038 241.0563 885.2136 235.7838 883.5469 237.768 877.9781 237.4622 876.0861 234.735 874.07 230.671 879.3846 227.5988 878.2547 223.8964 879.4143 222.5715 872.8479 215.0363 873.2412 210.2666 867.4377 208.6537 867.3092 208.7068 868.9543 205.4917 870.2302 203.6289 867.218 196.6705 866.9088 194.9707 864.6845 192.5116 865.4967 187.5436 863.5881 184.4209 857.3935 184.8734 856.3775 187.1608 857.2472 188.9799 855.3534 185.8423 853.2248 182.1284 853.0912 178.5961 849.3649 188.0564 823.1441 189.683 818.8796 215.5771 818.7403 220.4556 817.1633 222.9851 814.3404 225.6875 813.3386 227.123 816.8655 234.1231 820.8561 234.1819 821.0148 234.8068 822.7051 238.8988 824.3621 239.4893 827.7409 242.0302 828.6022 243.3878 832.5721 245.9247 833.7452 247.9417 838.1868 245.6615 845.0214 252.9301 850.3628 255.8543 847.8019 256.3437 849.1642 Z" class="2801702"/>
<path d="M 467.0839 356.7474 471.3969 360.0141 469.6875 361.1864 471.5606 364.6815 469.0225 366.1026 469.2605 367.8078 471.4415 367.1202 471.7917 368.5916 474.6751 366.2774 474.2493 368.0743 475.6376 368.4107 475.4629 366.1801 477.404 366.6715 477.1792 365.5306 479.3695 364.9182 482.2048 370.4671 483.3543 370.474 482.4385 371.4316 483.8661 371.9793 480.7934 375.7051 486.7013 377.6738 486.6277 382.6916 491.3742 382.6762 488.9739 383.1005 490.1324 384.7358 486.7644 386.8511 486.4981 386.5703 485.2425 384.9956 482.2975 387.3471 480.6043 385.3455 475.4233 391.2805 473.7479 389.6426 471.9319 390.4261 472.3734 388.8484 469.7803 387.3957 467.7403 387.3137 464.6433 390.23 462.1185 389.002 459.7024 389.391 455.8338 385.4296 448.4877 383.4518 447.1774 380.6071 446.643 379.4468 446.4646 379.2857 441.2227 374.5555 440.5113 373.9888 439.2595 372.5238 439.2461 372.2952 437.3969 366.7542 434.3504 364.9238 434.38 357.2657 430.2642 347.3619 436.1948 341.8661 436.1905 340.1561 435.3484 339.7804 433.0927 336.6022 433.5381 333.9186 427.2803 330.8119 426.394 325.6567 411.397 320.3049 424.9928 312.5087 425.1079 312.8174 430.0096 320.9063 433.1209 323.339 435.9686 328.329 435.6117 330.7586 437.9058 332.3772 440.564 338.1335 445.2163 339.5552 446.766 339.5731 447.2228 337.8142 448.4101 339.3409 451.2943 338.051 454.2026 340.8559 457.5619 340.2069 459.3213 342.7674 463.4565 344.4547 464.8179 348.5321 463.2818 350.0199 465.8845 351.5295 464.9276 353.9287 462.3735 354.3428 463.7724 355.8502 462.798 356.2799 465.314 357.7361 467.0839 356.7474 Z" class="2801900"/>
<path d="M 448.3608 471.9789 461.0215 479.688 472.8354 477.6932 469.2106 480.6849 475.9017 479.5817 474.761 484.4179 476.3404 487.9087 479.9112 490.7743 488.1978 489.1407 495.0393 487.7921 497.0564 485.3504 497.6892 486.5117 499.295 489.5094 498.6284 492.4732 487.9214 505.3176 485.3541 512.8603 476.2533 512.0161 474.4113 520.3719 472.1051 521.5686 471.2981 523.159 472.4586 526.0505 472.5918 528.4295 469.4593 530.0376 469.8531 532.1821 468.1475 533.9798 467.0675 530.6906 468.3211 527.6299 463.6728 526.6302 465.18 523.6399 462.1591 522.0852 459.7202 519.7814 457.6877 522.3173 456.8428 522.9238 454.0647 524.2364 448.1529 522.8117 451.4954 520.6783 450.0014 518.9286 450.416 516.4675 448.4931 514.6739 449.9925 510.984 452.7721 508.7012 451.5615 507.4128 451.622 501.9712 454.5163 501.8644 455.4069 498.5057 454.0794 498.0516 455.5616 496.2714 455.8836 493.7629 459.5584 492.4585 458.3906 489.873 459.3429 486.7219 457.7972 486.2692 454.2321 480.4541 450.042 480.9707 449.3224 479.4353 450.2684 475.0025 448.3608 471.9789 Z" class="2802007"/>
<path d="M 425.1013 765.6493 416.5978 779.0792 411.3505 789.87 400.0766 825.1804 397.3282 827.293 395.4745 833.0107 390.6507 831.8179 385.6579 831.854 376.8102 837.1167 364.8423 828.4878 364.7443 828.3506 363.9589 827.2534 361.5272 823.8556 361.5035 823.744 360.8967 818.241 362.5613 810.5975 370.2017 800.52 370.1661 794.1532 374.836 786.6075 370.756 778.9898 365.3886 776.4286 361.9259 771.0238 355.6839 771.4865 353.9443 773.6384 345.2115 767.7776 342.8041 771.0832 342.6193 771.1689 338.3752 775.1991 327.2993 771.9788 321.1092 772.2901 312.0057 770.4792 311.6008 767.5676 313.0552 766.9381 315.2608 765.7468 319.1548 759.3455 315.9258 758.5368 315.5144 755.6631 311.925 752.6126 310.7058 750.9179 311.6336 745.7409 309.6425 745.6346 309.1845 743.525 311.2641 741.2377 311.0417 739.1119 307.9956 739.3925 305.8239 735.7058 308.1435 726.3526 306.2976 722.5591 303.3434 722.5654 301.6604 719.8341 300.3971 721.2067 298.6298 720.3908 297.7129 718.1817 300.6819 715.7717 301.9341 713.0396 321.5511 708.4759 322.2461 708.3141 327.4054 707.1137 339.8566 704.2162 349.206 695.8108 350.0987 691.9228 348.4366 691.1619 349.1575 689.2748 351.2575 688.8091 352.1869 686.5386 348.642 682.9581 348.8099 678.6419 355.6068 673.9921 369.8848 664.2248 369.9233 664.2967 371.7864 665.0072 374.424 670.977 378.1005 672.1692 379.9908 674.802 383.5186 679.2291 386.4529 680.3921 392.3133 689.7839 391.2939 696.6368 394.7052 700.859 394.3824 704.7834 391.5514 706.8746 391.4828 710.9443 392.0691 713.0367 390.202 716.8078 388.5829 717.1858 387.4064 724.4704 386.971 726.117 390.8642 730.448 395.197 733.6384 394.3782 735.4889 396.3687 737.0138 394.9355 740.8486 395.7408 743.3831 402.5843 748.2294 402.9621 748.68 415.9482 758.9922 425.1013 765.6493 Z" class="2802106"/>
<path d="M 435.3484 339.7804 432.5524 338.5322 427.9344 341.6145 423.3962 340.9358 419.5852 342.1818 420.068 343.2782 421.1383 345.7084 417.0396 344.4674 414.186 345.4411 413.7299 347.7196 410.5366 348.0279 409.4996 350.4725 407.204 351.5651 407.7954 353.7755 404.5698 359.9869 400.6346 361.6613 401.243 364.8113 397.1183 367.8514 397.0029 371.7149 393.4568 373.5031 389.5512 373.2345 388.7946 374.1448 390.6219 375.6913 387.2917 375.8267 386.8571 372.3811 386.8522 372.3555 386.9989 370.2689 383.9341 369.0627 385.1212 366.5761 386.2356 367.436 388.8625 366.4953 389.0408 364.5587 386.7237 363.4288 386.7382 359.6111 382.7123 358.7491 382.2097 355.2104 384.1209 354.2006 381.2817 351.9854 378.5777 352.5112 377.4846 351.3691 376.6363 352.4893 374.6786 346.8585 372.7089 346.1934 370.5108 347.9794 368.861 347.0213 371.5266 343.2693 370.625 341.6017 370.9079 336.5717 369.7226 336.9316 367.8188 334.4897 369.2586 328.0024 367.6991 322.1405 365.9037 320.3047 369.0596 312.7644 371.9029 304.1599 381.9744 302.7276 392.6843 301.2039 394.4582 300.9516 424.9928 312.5087 411.397 320.3049 426.394 325.6567 427.2803 330.8119 433.5381 333.9186 433.0927 336.6022 435.3484 339.7804 Z" class="2802205"/>
<path d="M 309.0413 488.4485 296.9221 477.0906 273.6986 472.9053 266.0616 471.5277 261.2999 470.6685 257.596 465.1127 246.7393 448.8185 240.8571 439.9842 225.068 429.756 225.4669 429.496 244.114 417.3484 267.2874 389.1119 269.2372 387.053 289.6118 370.1188 297.0327 401.4813 301.2961 408.9952 301.3414 409.0751 301.5875 409.4182 317.4228 428.1915 319.331 432.3114 321.924 437.9098 322.3698 438.5537 333.2337 454.2432 333.2564 454.2758 326.6899 465.421 322.45 472.6189 319.5477 477.5458 309.0413 488.4485 Z" class="2802304"/>
<path d="M 556.4999 220.275 555.7542 220.4823 552.4731 221.3943 534.8199 226.302 526.0275 233.6325 511.416 236.5272 510.9733 236.5908 493.4476 232.0495 493.1913 234.0914 489.5187 232.2946 482.5316 234.7538 481.2034 233.3811 478.0326 234.5886 477.6353 232.9715 474.4658 232.1862 468.8227 232.7749 463.0816 231.3456 459.9747 224.9481 455.7057 222.2808 452.9455 221.4836 454.624 223.4656 456.4018 223.4544 455.5244 224.7123 457.111 227.9056 454.7489 231.5515 457.6664 233.8218 456.2767 234.8113 456.1308 236.5981 452.5809 239.897 455.5028 240.5049 457.4168 238.7344 457.9643 241.9598 453.5277 242.2732 451.7678 245.1624 446.4853 243.423 445.8813 245.5915 449.2681 251.4439 444.2086 249.0015 443.3648 249.4926 445.3132 254.149 441.9713 253.2644 439.0067 253.4737 437.501 259.3123 438.1023 260.3302 440.9354 258.3722 442.8339 259.0385 440.0852 261.8764 441.5085 261.4115 442.6119 262.7719 441.8936 264.2694 443.5536 266.6321 441.5856 267.5699 442.738 268.5109 443.0501 271.2435 441.0311 272.134 442.9048 274.6633 442.2796 277.8147 439.3082 276.1331 438.2742 278.676 434.8949 278.7341 431.7967 273.666 430.1101 276.6921 427.5594 275.8409 424.9201 277.037 424.7421 278.7241 424.603 280.7615 421.9879 281.9835 420.3927 281.1599 416.9781 283.9614 414.9985 282.861 416.1824 279.0265 414.5041 277.5013 408.1224 277.3401 403.7764 277.0543 402.2899 276.3457 388.7847 277.4315 394.723 265.5002 387.3473 259.733 372.7704 247.9211 372.7338 247.891 360.6419 238.0204 356.6126 236.8882 361.16 232.5318 364.7137 232.7764 365.1344 229.7167 367.521 231.3186 368.6534 227.6399 372.3554 226.4338 371.7193 223.3191 375.3301 221.2922 373.7365 219.2796 376.8273 219.2688 376.8918 217.4936 374.0349 214.5251 379.4235 213.2935 380.744 214.528 380.2889 216.8894 382.5362 215.9147 385.086 216.82 387.4644 211.7652 384.8366 212.0584 384.7347 210.1114 385.8907 207.4815 387.2841 210.0586 389.673 209.7739 389.4403 206.8623 391.3854 204.3644 394.1429 207.355 393.539 211.8702 396.1787 214.4446 394.3141 216.8755 397.467 215.6559 401.3593 213.5009 402.7595 210.0243 404.8456 209.9871 407.3711 211.1937 410.6879 216.9214 414.2001 214.3029 413.2877 207.4227 414.8323 205.1707 423.0581 207.3893 420.0528 195.2417 421.9735 193.4639 425.0679 195.1843 426.8068 192.2602 436.841 191.6702 438.0086 172.4332 440.0316 166.7257 453.5226 166.113 471.7702 167.3191 480.53 172.9005 502.9332 193.3697 505.3458 195.6991 509.5842 199.5942 510.7483 200.5199 511.0673 200.7735 518.6517 205.1849 524.8135 204.1497 535.3314 199.8114 539.9168 199.4428 551.6751 206.991 555.3478 214.8549 555.6259 215.6332 555.8697 216.3163 555.8831 216.3531 556.0254 216.752 556.4999 220.2402 556.4999 220.275 Z" class="2802403"/>
<path d="M 558.9029 517.6692 554.2876 513.972 550.4699 514.662 548.3329 512.3705 546.052 512.146 541.0539 513.2363 535.2614 510.2934 530.6323 505.2762 533.006 503.8003 532.8328 501.3651 542.8736 503.9442 545.356 504.5813 562.1092 505.6809 573.2595 505.885 565.3792 510.3274 559.6058 516.998 558.9029 517.6692 Z" class="2802502"/>
<path d="M 472.1197 281.3186 471.199 290.8425 478.4922 293.5564 478.8453 296.3607 478.7582 296.4406 475.9866 298.3522 472.9817 306.1237 472.5985 311.7692 473.4895 314.1293 476.9051 316.39 476.1704 320.6583 477.9058 323.0698 478.1501 328.628 477.4771 331.157 474.1858 334.2471 472.7099 334.5919 473.1982 336.5054 474.0144 340.7254 470.635 342.5636 473.2342 346.0967 473.3583 349.2346 466.3809 353.3544 467.8057 354.2537 467.0839 356.7474 465.314 357.7361 462.798 356.2799 463.7724 355.8502 462.3735 354.3428 464.9276 353.9287 465.8845 351.5295 463.2818 350.0199 464.8179 348.5321 463.4565 344.4547 459.3213 342.7674 457.5619 340.2069 454.2026 340.8559 451.2943 338.051 448.4101 339.3409 447.2228 337.8142 446.766 339.5731 445.2163 339.5552 440.564 338.1335 437.9058 332.3772 435.6117 330.7586 435.9686 328.329 433.1209 323.339 430.0096 320.9063 425.1079 312.8174 424.9928 312.5087 394.4582 300.9516 402.2899 276.3457 403.7764 277.0543 408.1224 277.3401 414.5041 277.5013 416.1824 279.0265 414.9985 282.861 416.9781 283.9614 420.3927 281.1599 421.9879 281.9835 424.603 280.7615 424.7421 278.7241 424.9201 277.037 427.5594 275.8409 430.1101 276.6921 431.7967 273.666 434.8949 278.7341 438.2742 278.676 439.3082 276.1331 442.2796 277.8147 442.9048 274.6633 441.0311 272.134 443.0501 271.2435 442.738 268.5109 449.8003 273.5072 448.3929 274.8648 450.2613 276.718 449.7422 278.2515 451.9772 278.4864 453.9327 280.3527 455.9147 278.5188 460.1186 285.4098 462.3924 285.0755 462.9223 283.394 467.2294 283.9664 472.1197 281.3186 Z" class="2802601"/>
<path d="M 726.0795 390.9819 734.0039 395.4363 736.6198 392.1302 748.7054 391.7177 744.9258 393.139 743.6663 396.7574 748.9257 396.6358 757.7266 392.8353 760.1042 398.5089 754.4259 400.224 747.5731 402.6628 741.2706 410.8569 728.5615 418.5968 716.4258 425.4673 710.0768 424.2365 709.9072 421.9765 713.6227 417.8827 710.0793 416.1144 712.7437 408.468 712.1299 403.6293 714.1077 402.0188 716.0922 404.489 715.921 401.8434 717.3389 399.836 718.4289 400.3532 717.8184 398.7297 720.9356 399.0819 720.5883 397.723 724.7945 396.4053 726.0795 390.9819 Z" class="2802700"/>
<path d="M 361.5272 823.8556 363.9589 827.2534 364.7443 828.3506 364.8423 828.4878 376.8102 837.1167 368.5008 847.5831 363.9544 851.6848 360.1494 854.5655 343.6522 865.4626 337.8275 866.8012 320.6265 867.2153 317.9927 869.7824 315.2379 872.1292 313.596 877.731 299.3794 877.1616 296.9449 878.5888 295.3254 875.3071 292.4936 873.8573 290.3811 875.0367 290.8996 877.6901 288.1801 879.0869 285.2463 874.9239 288.0624 871.4931 287.0625 870.0939 283.6455 868.8072 277.6321 874.0481 275.3648 872.3424 271.8953 873.0839 266.9234 869.4752 265.302 864.7727 263.344 862.1003 263.0764 857.4186 259.2546 858.2475 258.0565 856.664 259.6326 856.2465 259.0637 851.0254 256.3437 849.1642 261.2989 839.9211 264.0581 834.7755 274.3696 815.5469 278.0161 808.7492 278.046 808.7671 287.8896 814.7061 287.981 814.7609 290.7711 816.4441 291.9707 817.1682 294.2619 818.5492 296.6916 820.0147 306.9987 820.6591 311.1759 823.5399 318.7192 819.9145 320.6192 825.7712 324.8082 832.275 325.0511 832.3856 328.3879 832.3648 330.6056 835.3157 335.0166 835.1188 334.2862 834.0058 335.2841 833.7917 337.5935 835.8615 338.9563 832.7058 345.0779 831.3174 347.6154 824.6434 351.4794 824.0642 355.7171 826.7404 359.1622 825.7013 361.5272 823.8556 Z" class="2802809"/>
<path d="M 367.4612 461.152 368.407 462.4059 368.8364 464.0553 370.5277 467.0231 369.5432 469.53 370.3486 476.0191 370.3322 476.2217 369.5315 479.911 370.8154 481.4756 373.5595 481.7758 373.9811 478.8501 376.103 482.0452 378.2225 482.572 379.0881 485.1077 380.0419 487.902 382.5869 488.1309 381.7075 490.6074 382.7537 492.3153 388.1862 493.7514 395.9278 491.8444 399.1128 506.3845 397.295 514.0809 395.0447 519.6864 392.7301 521.209 389.0472 523.6316 385.3667 526.0538 381.1287 529.7717 381.033 529.9712 375.5008 541.4622 374.9496 542.6076 368.3815 556.2546 366.9818 559.1637 363.9681 565.4271 354.8634 567.6563 353.5869 567.9687 351.6986 568.3262 346.4634 556.0452 344.1454 549.4641 345.3374 547.2702 346.6543 548.7466 347.5115 547.6066 346.9413 544.9332 342.607 542.018 344.1358 540.6399 343.3577 539.091 343.5793 533.6354 342.8445 528.236 340.0908 521.0575 337.8534 517.4487 333.1718 516.3353 330.0114 511.9294 323.9278 509.6597 322.1057 508.9454 321.8754 506.6751 319.8807 503.4094 318.7776 499.8594 314.1504 497.17 313.5661 492.5973 312.8208 491.989 309.0413 488.4485 319.5477 477.5458 322.45 472.6189 326.6899 465.421 333.2564 454.2758 334.0195 456.082 338.548 466.8016 347.0536 462.6334 355.5185 458.4852 359.9348 459.4717 367.4612 461.152 Z" class="2802908"/>
<path d="M 232.9804 716.8555 234.8974 719.2364 235.5728 720.5917 233.6121 724.2464 233.8037 724.4174 237.2943 726.8736 237.6484 729.7791 240.1377 729.3725 242.9963 736.6865 245.6227 742.8252 247.891 744.1332 248.8607 746.6818 250.7781 747.2726 251.6177 750.7517 251.6952 762.7677 251.7171 766.1346 239.3554 773.9643 239.349 777.7061 239.3394 783.4643 239.3158 798.8397 234.9415 802.9915 222.9851 814.3404 220.4556 817.1633 215.5771 818.7403 213.7656 813.909 213.8483 816.0254 210.2762 816.6339 208.4137 815.3667 209.4155 811.087 206.0532 809.3182 205.4154 803.9185 202.3816 804.4602 199.1677 802.1003 198.9455 798.6612 198.3934 796.1336 196.5588 796.398 196.4148 791.1842 186.1331 784.224 186.1557 781.1485 186.1268 781.1143 183.1945 778.7933 180.3247 779.5529 177.136 776.8553 176.4416 776.0933 173.0699 772.7341 171.9122 771.1131 170.1571 769.5348 168.8194 770.7141 165.4216 770.4513 162.1226 763.9592 160.8168 764.0047 158.902 765.7224 149.1233 758.5121 146.4389 755.1454 141.9696 755.5809 137.932 749.9661 143.1744 742.5629 147.8813 736.7144 155.4397 732.9481 156.7402 732.3004 158.8905 734.9165 163.3469 736.9466 164.298 731.7749 162.26 730.5558 162.8171 727.8811 159.9858 723.1483 159.924 721.5717 166.1744 716.2715 166.3705 716.1049 172.8764 710.5878 180.6113 706.6114 195.8817 698.7618 199.3669 698.2721 199.4481 698.2882 203.3625 698.5001 207.624 702.6177 209.3166 702.2542 213.9598 705.5203 217.3858 707.965 219.5774 706.2132 223.8782 712.4603 227.6821 711.2013 230.6722 713.9894 232.9804 716.8555 Z" class="2803005"/>
<path d="M 510.9733 236.5908 510.0752 241.2376 509.5895 243.7509 508.4121 249.8474 509.7065 268.8583 498.7948 272.4757 474.4494 280.5464 472.2111 281.2882 472.1197 281.3186 467.2294 283.9664 462.9223 283.394 462.3924 285.0755 460.1186 285.4098 455.9147 278.5188 453.9327 280.3527 451.9772 278.4864 449.7422 278.2515 450.2613 276.718 448.3929 274.8648 449.8003 273.5072 442.738 268.5109 441.5856 267.5699 443.5536 266.6321 441.8936 264.2694 442.6119 262.7719 441.5085 261.4115 440.0852 261.8764 442.8339 259.0385 440.9354 258.3722 438.1023 260.3302 437.501 259.3123 439.0067 253.4737 441.9713 253.2644 445.3132 254.149 443.3648 249.4926 444.2086 249.0015 449.2681 251.4439 445.8813 245.5915 446.4853 243.423 451.7678 245.1624 453.5277 242.2732 457.9643 241.9598 457.4168 238.7344 455.5028 240.5049 452.5809 239.897 456.1308 236.5981 456.2767 234.8113 457.6664 233.8218 454.7489 231.5515 457.111 227.9056 455.5244 224.7123 456.4018 223.4544 454.624 223.4656 452.9455 221.4836 455.7057 222.2808 459.9747 224.9481 463.0816 231.3456 468.8227 232.7749 474.4658 232.1862 477.6353 232.9715 478.0326 234.5886 481.2034 233.3811 482.5316 234.7538 489.5187 232.2946 493.1913 234.0914 493.4476 232.0495 510.9733 236.5908 Z" class="2803104"/>
<path d="M 400.4685 569.8117 395.8399 607.4078 394.717 614.9538 391.705 617.9795 393.0257 620.842 393.98 625.798 397.634 628.872 395.9345 631.5757 405.6365 635.2384 405.9632 638.4091 406.856 640.3401 406.8639 640.3689 408.751 645.6871 410.3217 648.6561 414.6402 651.2467 414.8573 652.9426 428.3835 656.1676 439.7775 658.6419 440.8369 669.3428 443.211 674.1199 449.4274 678.1794 458.629 681.5265 465.9167 686.5135 467.8458 691.8388 467.7867 698.6194 465.6303 704.4097 467.2835 706.8746 469.8419 709.177 472.25 711.2697 452.476 732.9022 449.385 736.2359 425.1013 765.6493 415.9482 758.9922 402.9621 748.68 402.5843 748.2294 395.7408 743.3831 394.9355 740.8486 396.3687 737.0138 394.3782 735.4889 395.197 733.6384 390.8642 730.448 386.971 726.117 387.4064 724.4704 388.5829 717.1858 390.202 716.8078 392.0691 713.0367 391.4828 710.9443 391.5514 706.8746 394.3824 704.7834 394.7052 700.859 391.2939 696.6368 392.3133 689.7839 386.4529 680.3921 383.5186 679.2291 379.9908 674.802 378.1005 672.1692 374.424 670.977 371.7864 665.0072 369.9233 664.2967 369.8848 664.2248 363.4419 656.2337 363.3517 656.1218 362.8992 653.2098 359.6354 644.9346 353.9725 641.5986 353.2724 636.6145 350.4731 635.9784 348.111 633.3965 341.2939 631.4589 334.6062 620.8061 333.1868 618.5429 330.6466 614.4951 330.3395 614.0062 320.6688 598.5846 323.7318 600.1555 328.3513 598.259 333.7736 595.3275 337.1498 595.1292 340.8987 590.5314 347.0023 583.8891 363.269 566.1885 362.291 568.7895 363.7604 574.1264 375.8201 577.611 380.9732 575.2436 386.2554 576.4408 390.5106 575.8165 392.392 571.9951 395.8429 569.3344 400.4685 569.8117 Z" class="2803203"/>
<path d="M 630.9732 458.3239 606.6301 477.0784 601.1094 481.3323 583.6124 494.8159 581.1742 496.1001 579.3809 495.5472 578.1408 496.4431 576.3142 497.7622 570.6669 501.8406 567.925 498.9607 566.1131 492.2237 554.4521 490.4019 550.4285 485.0366 551.1217 482.0501 545.9128 482.2022 541.1821 482.3401 532.9197 486.3362 540.8914 464.0929 547.9322 444.4574 548.0287 442.3699 547.9956 442.2021 547.2922 438.6137 556.5271 435.8304 561.2941 419.1768 565.5729 404.2375 566.7206 394.2281 568.2945 393.2361 570.051 394.2617 573.2839 391.2238 575.87 391.4508 578.5456 389.9495 578.9351 387.9803 579.4577 383.9218 587.9941 381.2963 590.6585 385.0564 590.7791 387.8973 594.394 390.7495 599.1881 391.0605 599.0828 394.6372 594.7625 395.9641 591.4462 399.2064 593.6233 406.1356 594.6574 417.1674 594.625 419.243 597.2342 421.3743 598.0872 424.4068 603.4505 424.9722 607.4771 428.8773 610.5971 439.5562 620.3134 447.0364 620.2434 455.6677 620.0938 457.7856 630.9732 458.3239 Z" class="2803302"/>
<path d="M 666.1456 385.0329 661.5924 404.9522 660.8381 407.9623 653.6443 435.2931 652.664 439.0198 645.4349 466.5161 643.2155 466.1963 638.8004 460.4863 630.9732 458.3239 620.0938 457.7856 620.2434 455.6677 620.3134 447.0364 610.5971 439.5562 607.4771 428.8773 603.4505 424.9722 598.0872 424.4068 597.2342 421.3743 594.625 419.243 594.6574 417.1674 593.6233 406.1356 591.4462 399.2064 594.7625 395.9641 599.0828 394.6372 599.1881 391.0605 594.394 390.7495 590.7791 387.8973 590.6585 385.0564 587.9941 381.2963 579.4577 383.9218 582.9565 376.5382 599.951 374.7382 602.7681 370.9507 606.6893 363.5953 607.1971 357.6262 612.1141 353.4665 614.7456 344.2933 616.334 344.1526 614.0295 341.0667 615.6633 338.3849 619.1628 338.4173 623.0336 332.5859 624.1908 331.8522 623.766 333.7764 626.5217 334.4571 628.4509 338.934 633.1504 342.9798 633.2745 343.1129 636.8959 344.0389 640.27 347.4341 645.2204 345.4236 649.9717 348.6321 651.3158 350.9272 650.5262 356.7218 652.7469 364.611 658.9133 374.0707 666.1456 385.0329 Z" class="2803401"/>
<path d="M 271.1689 516.987 271.5463 518.0602 266.0817 522.6744 265.0625 525.6769 266.7286 529.3575 264.7968 532.2126 270.3416 532.6978 275.6975 540.9296 278.7866 546.8952 273.1324 553.1153 273.0352 555.4306 274.5638 560.3906 278.7793 561.3636 280.1145 564.1933 280.2329 564.5104 287.056 570.6848 290.6663 572.0343 293.9332 570.7007 299.7725 572.3227 302.9134 570.2029 304.501 571.6801 314.667 574.0689 317.2207 573.8297 318.0621 570.1752 323.089 569.1552 324.7125 568.2308 327.0676 569.2226 327.1258 571.2785 330.3688 572.5683 329.3158 580.1316 331.6998 580.4867 334.5251 577.779 340.4521 586.1425 339.5857 589.3117 340.8987 590.5314 337.1498 595.1292 333.7736 595.3275 328.3513 598.259 323.7318 600.1555 320.6688 598.5846 330.3395 614.0062 330.6466 614.4951 333.1868 618.5429 334.6062 620.8061 341.2939 631.4589 341.1756 631.4276 319.6224 625.6347 314.2329 624.185 313.6434 624.2096 309.9563 635.8688 309.1644 638.3721 309.1537 638.4075 308.8057 639.5083 301.8304 644.9452 300.9998 645.5927 292.638 652.1109 291.9947 656.1311 294.0873 658.4022 269.4713 670.1894 269.4006 670.2238 264.1381 668.9876 260.0896 661.2976 257.0944 661.5627 254.7118 658.6809 248.7409 654.8521 246.6661 650.9565 242.3868 652.9308 239.0815 652.6134 230.1904 641.5192 227.7013 639.8588 224.9247 638.2935 217.182 636.9158 216.2937 639.9037 218.7143 641.9722 218.1076 645.9785 214.8002 645.808 212.6217 642.8548 209.6189 646.0334 207.3344 645.52 206.35 648.5184 204.0828 648.547 202.9178 643.9991 200.6736 645.926 198.799 644.587 195.8427 649.5337 193.6236 646.5983 188.8536 646.0496 187.6591 642.6832 185.833 644.2998 183.3379 643.4307 183.4172 639.449 181.8922 636.9665 176.8669 636.0181 178.9725 632.6495 175.8335 628.3663 176.2099 625.8802 175.958 622.0836 177.9759 620.1991 175.5463 618.5762 172.7142 612.8714 170.6278 612.9126 160.5574 607.2508 164.2636 597.336 159.707 582.6537 166.6334 584.8036 171.8859 583.1317 180.6155 580.3525 186.889 585.0244 190.6369 572.6119 193.0595 570.3982 196.5386 568.6235 207.4138 563.076 213.5057 557.9669 218.6792 556.1526 221.532 553.9587 225.4683 548.9579 228.1971 541.8736 226.977 540.7557 231.8563 535.3401 231.5356 533.8959 232.7238 528.2664 236.6277 527.8223 244.8101 523.5043 245.1058 517.9927 249.2883 515.2355 251.381 519.0858 255.7735 515.9824 258.7517 510.0501 260.7876 511.6795 258.8048 515.8233 262.9758 517.3521 270.1796 514.5334 271.1689 516.987 Z" class="2803500"/>
<path d="M 468.1475 533.9798 471.7947 541.8028 473.9149 542.5001 475.3367 540.3265 480.1849 541.3266 479.7785 544.8246 480.76 547.3224 483.4239 549.0095 493.3293 544.0517 499.6991 547.6689 500.0645 554.232 505.2545 558.1748 509.7427 564.8505 497.3975 565.095 492.6026 563.3578 489.5913 567.5356 483.8791 569.5599 478.3132 570.246 471.3069 569.2711 469.5618 568.9075 469.2355 570.7365 462.5944 573.3881 459.864 578.6659 455.6994 578.1289 455.691 577.8105 448.6435 575.69 444.8502 575.8337 437.8906 570.7253 432.6906 569.5502 400.7696 568.5605 415.4547 557.7032 419.9569 554.3753 431.8401 545.5911 439.0199 538.325 442.4277 537.5091 444.7413 540.3758 465.0317 534.8313 468.1475 533.9798 Z" class="2803609"/>
<path d="M 321.8754 506.6751 310.5682 506.8456 308.1234 506.9397 306.6147 509.4581 301.1924 510.6761 301.1417 510.6877 295.9115 508.2541 290.1795 507.6171 288.9442 505.4198 285.3137 503.5633 280.8968 510.0932 276.9911 509.0717 275.5704 512.0016 276.6112 515.7586 274.9395 514.671 274.1029 517.2285 271.1689 516.987 270.1796 514.5334 262.9758 517.3521 258.8048 515.8233 260.7876 511.6795 258.7517 510.0501 255.7735 515.9824 251.381 519.0858 252.0066 517.2976 250.3845 515.107 252.1759 513.0802 251.2921 508.073 251.5434 503.8399 249.3575 500.9123 252.1811 492.3399 254.8121 489.3029 257.4414 476.3178 261.2999 470.6685 266.0616 471.5277 273.6986 472.9053 296.9221 477.0906 309.0413 488.4485 312.8208 491.989 313.5661 492.5973 314.1504 497.17 318.7776 499.8594 319.8807 503.4094 321.8754 506.6751 Z" class="2803708"/>
<path d="M 574.0256 379.6512 569.0225 374.4317 558.9209 363.8888 550.6764 355.28 533.6819 340.3801 556.6148 335.0626 564.8239 329.9974 566.28 329.0993 565.3492 342.2624 566.7782 343.0714 579.6703 349.8193 580.4954 360.9884 574.9561 371.5946 574.72 373.6401 574.0256 379.6512 Z" class="2803807"/>
<path d="M 409.9397 469.1487 410.3446 473.3875 411.9313 473.2881 416.322 477.507 416.9945 482.9198 421.7549 484.0663 425.5682 489.9797 431.0681 490.7345 430.8811 495.2744 434.6213 496.7872 437.7758 500.782 439.3165 505.2902 437.3414 510.4317 441.0404 513.917 439.7175 515.3799 438.577 513.0787 437.0308 513.9237 435.5654 513.9147 434.6225 515.5465 431.796 514.6786 429.8343 515.7901 429.2788 514.0684 425.8029 512.9501 423.1959 515.2371 423.2085 517.4246 420.493 518.3622 418.4734 516.7657 415.7062 521.0954 411.1614 521.6491 408.6888 524.8523 401.3958 529.3528 400.2217 528.2918 401.9349 526.4844 403.2768 526.0168 401.8762 525.4443 400.6439 525.2672 394.3532 523.2824 392.7301 521.209 395.0447 519.6864 397.295 514.0809 399.1128 506.3845 395.9278 491.8444 395.9184 491.8029 394.4436 485.7798 396.2479 480.9976 399.1689 477.1707 401.7412 475.2549 406.8691 471.4357 409.9397 469.1487 Z" class="2803906"/>
<path d="M 507.4197 533.0321 507.2715 533.8617 507.7113 541.7334 505.229 545.9407 502.9524 545.6381 499.6991 547.6689 493.3293 544.0517 483.4239 549.0095 480.76 547.3224 479.7785 544.8246 480.1849 541.3266 475.3367 540.3265 473.9149 542.5001 471.7947 541.8028 468.1475 533.9798 469.8531 532.1821 469.4593 530.0376 472.5918 528.4295 472.4586 526.0505 471.2981 523.159 472.1051 521.5686 474.4113 520.3719 476.2533 512.0161 485.3541 512.8603 487.9214 505.3176 498.6284 492.4732 497.6335 500.4851 499.1849 504.5657 501.107 506.053 505.1805 505.2529 507.9096 508.2474 512.0696 508.471 514.753 512.6972 510.6414 519.5613 507.4197 533.0321 Z" class="2804003"/>
<path d="M 399.3238 443.0232 400.5026 445.8293 403.4631 446.6046 402.3865 450.8199 403.3023 453.7107 406.7259 457.7907 410.8556 458.4737 414.9605 457.5838 420.3757 459.3919 424.2663 458.9324 430.3456 466.5727 429.3753 466.7167 423.1596 463.0385 416.4302 463.2277 413.8443 466.1126 411.3008 466.3487 409.9397 469.1487 406.8691 471.4357 401.7412 475.2549 399.1689 477.1707 396.2479 480.9976 394.4436 485.7798 395.9184 491.8029 395.9278 491.8444 388.1862 493.7514 382.7537 492.3153 381.7075 490.6074 382.5869 488.1309 380.0419 487.902 379.0881 485.1077 378.2225 482.572 376.103 482.0452 373.9811 478.8501 373.5595 481.7758 370.8154 481.4756 369.5315 479.911 370.3322 476.2217 370.3486 476.0191 369.5432 469.53 370.5277 467.0231 368.8364 464.0553 368.407 462.4059 367.4612 461.152 376.6477 452.8546 380.6229 451.2521 380.8499 446.7025 388.4635 442.6309 392.4275 442.7932 393.6868 444.4972 397.3033 443.5877 399.3238 443.0232 Z" class="2804102"/>
<path d="M 356.6126 236.8882 356.4717 239.471 359.757 239.8704 359.2985 243.2336 352.3857 237.9024 353.1118 243.1864 349.9188 241.0874 346.9013 243.1525 347.9164 246.9029 350.9917 246.8614 348.0003 249.4136 349.6831 253.6108 344.3314 255.3669 344.214 255.3441 339.2834 254.3829 339.5069 251.5894 337.5629 249.7606 332.8324 251.5291 330.5152 248.6346 328.9593 249.7685 326.3252 254.0293 324.2487 251.9027 319.8335 254.8895 316.2037 253.7293 314.0126 257.0541 312.2575 255.0035 311.6148 257.7493 308.5222 259.1483 305.6292 257.4783 304.0017 259.8587 300.2126 258.6435 300.1626 258.6275 297.1739 262.8085 294.9245 256.4268 293.0021 256.8218 285.3866 250.987 286.0588 249.5494 283.609 248.914 281.3206 252.0739 279.7561 250.592 277.458 254.4981 272.824 251.3671 269.7906 255.7896 266.1866 254.375 262.8041 257.7667 259.5498 257.8911 256.2559 262.5733 253.5534 263.0786 252.8012 265.7831 250.1715 264.6294 248.0874 266.1009 244.8544 263.0731 240.4625 263.2389 237.6924 265.6171 236.4134 264.5347 225.9523 261.408 222.131 258.2274 218.5836 257.1976 216.1067 258.3824 199.962 251.303 202.6982 267.7366 200.9548 265.3109 193.589 257.0611 188.6505 245.8002 183.8081 234.7566 182.5469 225.4949 189.2838 223.8417 203.2863 224.5341 212.497 221.3288 219.3257 222.7452 219.4099 220.8456 222.3726 219.0889 222.5806 220.4059 226.3187 222.2804 235.1438 216.2099 236.8591 219.3744 239.3103 218.8322 242.3102 222.1511 247.6513 221.0606 250.5136 216.8428 254.8891 216.1647 259.6713 219.9002 262.6417 218.2718 264.5868 220.6151 266.4381 219.5186 267.8566 221.4731 272.7108 221.3657 276.1138 218.5033 280.309 220.3935 281.095 217.012 283.0407 217.0982 284.5031 215.2499 286.5064 209.4502 294.7956 209.6292 303.2725 211.7406 311.8739 213.9139 327.2051 217.7852 335.0761 219.7713 353.1244 234.1169 356.6126 236.8882 Z" class="2804201"/>
<path d="M 533.6819 340.3801 550.6764 355.28 558.9209 363.8888 569.0225 374.4317 574.0256 379.6512 579.4577 383.9218 578.9351 387.9803 578.5456 389.9495 575.87 391.4508 573.2839 391.2238 570.051 394.2617 568.2945 393.2361 566.7206 394.2281 565.5729 404.2375 564.6537 404.7898 562.2847 401.8702 557.8026 401.2562 554.1502 400.9673 553.2871 399.089 551.7026 393.283 548.7349 390.3625 544.7061 383.9233 545.8707 380.5089 543.3839 376.0641 547.2135 371.0886 545.3209 369.6285 544.3351 370.4233 538.9061 362.7235 537.515 362.0606 537.6691 351.7466 534.9085 350.8825 529.878 353.3694 532.3566 344.9045 532.4024 344.7487 532.5387 344.2834 533.6819 340.3801 Z" class="2804300"/>
<path d="M 666.1755 326.87 673.4541 328.7171 674.9382 327.9428 687.1557 348.7099 709.6875 342.0675 714.9053 340.1708 721.2932 345.9483 724.8302 352.0904 724.8402 352.1078 723.7235 366.3587 725.4982 373.9243 726.6946 376.3243 726.5356 384.3937 724.9781 387.6075 726.0795 390.9819 724.7945 396.4053 720.5883 397.723 720.9356 399.0819 717.8184 398.7297 718.4289 400.3532 717.3389 399.836 715.921 401.8434 716.0922 404.489 714.1077 402.0188 712.1299 403.6293 712.7437 408.468 710.0793 416.1144 713.6227 417.8827 709.9072 421.9765 710.0768 424.2365 707.8692 403.114 707.7096 401.5815 707.0164 397.3013 706.6754 391.466 710.6529 388.996 704.6526 387.51 702.853 386.8729 688.6917 382.4108 666.1456 385.0329 658.9133 374.0707 652.7469 364.611 650.5262 356.7218 651.3158 350.9272 649.9717 348.6321 645.2204 345.4236 640.27 347.4341 636.8959 344.0389 633.2745 343.1129 633.1504 342.9798 628.4509 338.934 626.5217 334.4571 623.766 333.7764 624.1908 331.8522 623.0336 332.5859 623.9547 330.5583 624.3395 330.3002 625.9424 328.8037 629.4155 323.0964 633.6886 324.4941 641.3088 319.7977 642.6808 322.8554 645.7679 322.8836 649.7952 327.5888 651.4906 331.775 653.2383 330.3575 661.6617 331.7734 664.6579 331.9618 663.8268 330.07 666.1755 326.87 Z" class="2804409"/>
<path d="M 363.8129 336.0158 363.0901 341.9736 362.576 343.5002 362.2449 347.3719 359.4975 359.3298 360.9609 368.5093 360.5029 389.6444 360.5014 389.7045 356.2766 383.5282 333.1592 408.3158 328.8369 408.467 325.2731 408.5913 312.8896 409.0242 301.5875 409.4182 301.3414 409.0751 301.2961 408.9952 297.0327 401.4813 289.6118 370.1188 288.5594 352.4642 283.7571 344.8174 283.7335 344.7803 274.1368 329.6809 280.5348 318.181 281.6162 318.6928 282.7008 315.7107 287.1927 313.7051 288.0003 316.5594 290.6255 317.7574 292.104 316.713 292.5814 320.5419 295.5728 322.6406 297.5308 321.8478 298.0973 325.0467 300.2024 323.2629 299.1163 321.5819 305.2351 321.601 305.3301 324.2952 303.5382 323.8435 304.2014 325.8028 302.5139 326.0341 305.2087 327.4373 308.6788 331.9679 311.3608 331.2302 312.3103 334.7106 314.92 334.5093 315.1711 334.5691 317.1044 337.7254 318.9534 335.4229 319.7659 336.9794 322.3474 336.2561 322.9624 337.4202 327.2609 332.4349 328.2393 333.7409 329.7225 331.971 329.4177 337.431 333.9176 334.3981 335.1409 335.3589 335.6687 331.6776 336.9665 332.3081 338.2326 330.2448 339.4917 330.7103 339.8992 332.6711 338.5832 333.0785 339.6801 334.1812 343.0788 336.0872 345.1173 334.9697 344.4992 337.0179 347.0515 338.4501 347.6567 337.4333 349.9244 337.9007 349.7052 341.1018 352.9681 342.8102 353.3274 340.4303 356.5208 340.8095 356.4159 342.3028 357.448 342.2519 358.7317 340.9285 360.6781 341.7207 361.7651 335.5723 363.8129 336.0158 Z" class="2804458"/>
<path d="M 402.2899 276.3457 394.4582 300.9516 392.6843 301.2039 381.9744 302.7276 371.9029 304.1599 369.0596 312.7644 365.9037 320.3047 361.7076 315.992 363.8129 336.0158 361.7651 335.5723 360.6781 341.7207 358.7317 340.9285 357.448 342.2519 356.4159 342.3028 356.5208 340.8095 353.3274 340.4303 352.9681 342.8102 349.7052 341.1018 349.9244 337.9007 347.6567 337.4333 347.0515 338.4501 344.4992 337.0179 345.1173 334.9697 343.0788 336.0872 339.6801 334.1812 338.5832 333.0785 339.8992 332.6711 339.4917 330.7103 338.2326 330.2448 336.9665 332.3081 335.6687 331.6776 335.1409 335.3589 333.9176 334.3981 329.4177 337.431 329.7225 331.971 328.2393 333.7409 327.2609 332.4349 322.9624 337.4202 322.3474 336.2561 319.7659 336.9794 318.9534 335.4229 317.1044 337.7254 315.1711 334.5691 314.92 334.5093 312.3103 334.7106 311.3608 331.2302 308.6788 331.9679 305.2087 327.4373 302.5139 326.0341 304.2014 325.8028 303.5382 323.8435 305.3301 324.2952 305.2351 321.601 299.1163 321.5819 300.2024 323.2629 298.0973 325.0467 297.5308 321.8478 295.5728 322.6406 292.5814 320.5419 292.104 316.713 290.6255 317.7574 288.0003 316.5594 287.1927 313.7051 282.7008 315.7107 281.6162 318.6928 280.5348 318.181 278.5854 316.6756 278.933 314.8504 276.1711 313.4898 273.2217 317.6263 271.8712 313.7958 268.9305 315.3418 258.0209 307.3315 255.8568 304.3805 247.2447 299.0419 243.9126 300.0552 243.8143 299.9526 240.6935 298.0156 237.9186 299.5508 235.4835 296.7735 235.7365 293.3211 228.4845 291.0584 212.1491 296.5816 207.6337 294.6442 201.3996 291.0473 200.2058 287.9295 203.8931 272.4778 202.6982 267.7366 199.962 251.303 216.1067 258.3824 218.5836 257.1976 222.131 258.2274 225.9523 261.408 236.4134 264.5347 237.6924 265.6171 240.4625 263.2389 244.8544 263.0731 248.0874 266.1009 250.1715 264.6294 252.8012 265.7831 253.5534 263.0786 256.2559 262.5733 259.5498 257.8911 262.8041 257.7667 266.1866 254.375 269.7906 255.7896 272.824 251.3671 277.458 254.4981 279.7561 250.592 281.3206 252.0739 283.609 248.914 286.0588 249.5494 285.3866 250.987 293.0021 256.8218 294.9245 256.4268 297.1739 262.8085 300.1626 258.6275 300.2126 258.6435 304.0017 259.8587 305.6292 257.4783 308.5222 259.1483 311.6148 257.7493 312.2575 255.0035 314.0126 257.0541 316.2037 253.7293 319.8335 254.8895 324.2487 251.9027 326.3252 254.0293 328.9593 249.7685 330.5152 248.6346 332.8324 251.5291 337.5629 249.7606 339.5069 251.5894 339.2834 254.3829 344.214 255.3441 344.3314 255.3669 349.6831 253.6108 348.0003 249.4136 350.9917 246.8614 347.9164 246.9029 346.9013 243.1525 349.9188 241.0874 353.1118 243.1864 352.3857 237.9024 359.2985 243.2336 359.757 239.8704 356.4717 239.471 356.6126 236.8882 360.6419 238.0204 372.7338 247.891 372.7704 247.9211 387.3473 259.733 394.723 265.5002 388.7847 277.4315 402.2899 276.3457 Z" class="2804508"/>
<path d="M 486.7644 386.8511 488.3077 387.9955 489.8227 388.8893 489.3147 393.2828 488.9032 396.8455 486.5297 400.37 479.274 404.902 478.224 412.3121 478.1799 412.909 477.503 428.6298 470.2126 438.1059 468.5624 440.5632 468.5464 440.5869 459.7657 452.6706 460.8943 453.8276 461.0708 454.0081 463.4695 456.4657 461.9108 459.953 453.806 465.3875 448.3608 471.9789 450.2684 475.0025 449.3224 479.4353 446.5603 476.6183 443.6392 475.9784 443.3681 473.7328 438.9409 472.4947 438.1232 470.5235 435.6942 470.559 430.3456 466.5727 424.2663 458.9324 420.3757 459.3919 414.9605 457.5838 410.8556 458.4737 406.7259 457.7907 403.3023 453.7107 402.3865 450.8199 403.4631 446.6046 400.5026 445.8293 399.3238 443.0232 398.7813 442.1211 397.2195 439.6053 397.0696 439.3621 392.9192 434.2936 392.8033 434.1522 382.6237 418.3856 387.1194 421.9594 407.4304 415.028 407.776 414.9101 419.2305 410.6972 416.6448 409.2027 412.4931 411.3644 411.6358 407.7361 413.6744 405.9602 412.721 403.4367 410.6339 403.6837 410.2224 400.4493 411.7382 399.0176 410.6523 396.9965 407.1689 398.1735 404.7499 393.6598 400.4365 397.211 397.3449 396.8818 394.6967 396.2207 393.5486 394.1223 394.5259 393.0973 397.8747 391.5286 394.6565 390.2014 395.6119 388.1625 394.1214 385.6948 393.2842 382.7062 387.5329 382.5512 390.6219 375.6913 388.7946 374.1448 389.5512 373.2345 393.4568 373.5031 397.0029 371.7149 397.1183 367.8514 401.243 364.8113 400.6346 361.6613 404.5698 359.9869 407.7954 353.7755 407.204 351.5651 409.4996 350.4725 410.5366 348.0279 413.7299 347.7196 414.186 345.4411 417.0396 344.4674 421.1383 345.7084 420.068 343.2782 419.5852 342.1818 423.3962 340.9358 427.9344 341.6145 432.5524 338.5322 435.3484 339.7804 436.1905 340.1561 436.1948 341.8661 430.2642 347.3619 434.38 357.2657 434.3504 364.9238 437.3969 366.7542 439.2461 372.2952 439.2595 372.5238 440.5113 373.9888 441.2227 374.5555 446.4646 379.2857 446.643 379.4468 447.1774 380.6071 448.4877 383.4518 455.8338 385.4296 459.7024 389.391 462.1185 389.002 464.6433 390.23 467.7403 387.3137 469.7803 387.3957 472.3734 388.8484 471.9319 390.4261 473.7479 389.6426 475.4233 391.2805 480.6043 385.3455 482.2975 387.3471 485.2425 384.9956 486.4981 386.5703 486.7644 386.8511 Z" class="2804607"/>
<path d="M 509.7065 268.8583 508.4121 249.8474 509.5895 243.7509 510.0752 241.2376 510.9733 236.5908 511.416 236.5272 526.0275 233.6325 534.8199 226.302 552.4731 221.3943 555.7542 220.4823 556.4999 220.275 555.3411 231.8416 557.581 240.9454 543.9852 245.2434 541.7817 245.9401 534.0582 255.0038 530.6873 257.5464 525.3503 262.4648 523.7217 267.2564 520.1471 269.304 520.2207 267.3602 518.7158 267.5305 517.4235 263.9091 513.7641 264.8933 509.7065 268.8583 Z" class="2804706"/>
<path d="M 522.3093 584.3811 518.5281 582.9161 512.8231 582.9274 508.3854 588.2399 505.4709 582.8665 501.7198 582.4413 495.6692 587.4928 492.9167 588.1801 495.5572 591.5968 492.7637 592.3059 492.0076 593.8809 493.5224 596.2819 491.3945 600.1164 494.2884 606.6064 490.159 604.8655 473.9601 610.7496 471.2425 608.7036 467.5224 609.0172 465.9869 605.4268 465.742 605.2768 463.3733 603.8262 463.3324 600.4586 461.0686 598.032 457.9477 596.886 455.4141 592.5922 452.206 593.9776 448.6097 588.1382 443.2882 588.8935 435.7386 584.7723 431.5972 582.9417 429.538 578.6571 425.3779 577.8024 422.6124 575.1938 420.2682 577.4165 412.122 577.5524 408.384 575.3934 404.3547 569.1744 400.5927 568.8029 400.4737 568.7795 400.7696 568.5605 432.6906 569.5502 437.8906 570.7253 444.8502 575.8337 448.6435 575.69 455.691 577.8105 455.6994 578.1289 459.864 578.6659 462.5944 573.3881 469.2355 570.7365 469.5618 568.9075 471.3069 569.2711 478.3132 570.246 483.8791 569.5599 489.5913 567.5356 492.6026 563.3578 497.3975 565.095 509.7427 564.8505 517.9755 566.0785 524.3641 572.1542 524.9782 578.7331 522.3093 584.3811 Z" class="2804805"/>
<path d="M 678.3918 481.1086 675.48 479.8204 673.0748 478.7561 666.3032 475.7588 663.8578 474.6761 645.4349 466.5161 652.664 439.0198 653.6443 435.2931 660.8381 407.9623 661.5924 404.9522 666.1456 385.0329 688.6917 382.4108 702.853 386.8729 704.6526 387.51 710.6529 388.996 706.6754 391.466 707.0164 397.3013 707.7096 401.5815 707.8692 403.114 710.0768 424.2365 716.4258 425.4673 753.502 431.1956 759.8701 437.9363 754.2504 442.179 710.0194 460.0933 701.3322 464.1552 678.3918 481.1086 Z" class="2804904"/>
<path d="M 261.2999 470.6685 257.4414 476.3178 254.8121 489.3029 252.1811 492.3399 249.3575 500.9123 251.5434 503.8399 251.2921 508.073 252.1759 513.0802 250.3845 515.107 252.0066 517.2976 251.381 519.0858 249.2883 515.2355 245.1058 517.9927 242.5739 515.357 247.2027 512.9457 245.6524 510.2256 241.95 508.5373 242.9159 505.1701 241.8356 504.1558 238.2444 504.8443 234.7285 502.1811 234.1979 498.7649 231.6182 499.5199 229.9768 497.3105 236.8502 489.1713 238.6928 485.7107 237.4072 485.5904 235.014 486.5944 233.1188 483.0488 229.4278 483.4702 227.4824 479.213 230.6784 472.6153 230.929 472.7402 233.8249 471.6601 233.8392 465.2853 237.6125 461.1211 239.3345 450.9684 240.8571 439.9842 246.7393 448.8185 257.596 465.1127 261.2999 470.6685 Z" class="2805000"/>
<path d="M 280.5589 728.8768 280.2041 733.4266 275.5975 734.9621 272.2742 734.1092 263.8296 735.9958 260.9911 734.7996 257.1171 736.2568 252.9763 735.6019 247.891 744.1332 245.6227 742.8252 242.9963 736.6865 240.1377 729.3725 237.6484 729.7791 237.2943 726.8736 233.8037 724.4174 233.6121 724.2464 239.6377 714.9535 242.95 718.8138 245.0596 723.0344 248.7514 720.0528 249.1222 720.2184 261.2677 726.623 261.6328 726.8046 275.2111 728.3005 276.1798 727.3397 276.3699 727.4539 280.5589 728.8768 Z" class="2805109"/>
<path d="M 225.068 429.756 240.8571 439.9842 239.3345 450.9684 237.6125 461.1211 233.8392 465.2853 233.8249 471.6601 230.929 472.7402 230.6784 472.6153 227.4824 479.213 229.4278 483.4702 233.1188 483.0488 228.5922 488.1915 225.4233 486.1829 226.35 483.2481 222.5636 481.8641 218.7586 482.7277 214.3811 477.8301 212.311 478.8072 207.1151 476.5712 206.928 471.2228 204.9932 470.1159 199.1913 469.1142 192.6455 465.0164 189.5175 468.994 186.3568 466.6028 184.8211 462.4421 179.7139 462.1322 179.7102 462.1083 181.6913 460.2357 179.258 459.6402 179.6392 457.0761 177.6178 456.2596 178.5735 451.7199 175.7503 449.7699 175.3577 446.9636 179.1451 447.7223 180.8021 446.1297 180.1712 443.38 182.5936 442.2055 184.4323 442.5991 183.2319 438.9478 186.1055 433.0961 188.9499 431.2249 193.8301 429.5298 201.641 430.3384 204.5523 428.446 222.479 432.5534 225.068 429.756 Z" class="2805208"/>
<path d="M 600.62 530.6055 597.4346 530.0891 593.9825 530.8107 592.5383 529.5886 594.0236 527.8272 592.6551 527.1794 594.6201 525.6777 593.0471 522.5236 593.3778 515.2216 591.3125 515.3304 589.3218 509.887 586.76 510.8765 585.8196 509.7353 585.0175 510.936 587.4171 512.0244 583.9436 512.3991 582.4352 514.3542 580.2688 512.9512 580.5896 509.118 576.8107 502.3742 570.6669 501.8406 576.3142 497.7622 578.1408 496.4431 579.3809 495.5472 581.1742 496.1001 583.6124 494.8159 601.1094 481.3323 606.6301 477.0784 630.9732 458.3239 638.8004 460.4863 643.2155 466.1963 645.4349 466.5161 663.8578 474.6761 666.3032 475.7588 673.0748 478.7561 675.48 479.8204 678.3918 481.1086 665.3789 486.8625 652.4119 492.6915 620.3519 513.7979 604.8888 527.0234 600.62 530.6055 Z" class="2805307"/>
<path d="M 250.5136 216.8428 247.6513 221.0606 242.3102 222.1511 239.3103 218.8322 236.8591 219.3744 235.1438 216.2099 226.3187 222.2804 222.5806 220.4059 222.3726 219.0889 219.4099 220.8456 219.3257 222.7452 212.497 221.3288 203.2863 224.5341 189.2838 223.8417 182.5469 225.4949 182.5331 224.9464 182.8051 216.8108 178.5275 209.3472 171.4672 207.09 160.3234 200.909 157.7555 201.7526 143.0503 199.653 140.1897 198.5147 137.9566 195.2238 133.9296 195.4113 138.328 190.1509 138.7327 185.8798 141.0107 182.4265 149.4629 175.8425 150.8845 172.571 155.2683 172.8886 157.1666 171.6614 163.4642 166.1267 162.9229 152.4821 163.3095 147.3936 165.2571 144.2936 163.0961 141.7936 167.2233 124.4239 169.4013 122.1147 169.4383 116.9981 169.3542 116.6188 175.1454 107.5134 174.1087 101.565 178.2378 85.019 179.4871 82.1486 182.8698 81.3834 183.459 81.25 200.6236 77.3662 200.8464 77.3159 214.8804 74.1401 250.407 66.0986 253.0578 70.936 254.5635 73.683 259.6283 77.154 277.4333 88.5947 278.2344 89.0196 286.9564 95.4283 291.177 97.4294 299.0941 98.2608 310.2685 99.755 311.7326 100.0905 333.5075 100.9268 336.4588 102.0851 319.2193 130.1602 310.1812 144.0321 310.156 144.0708 309.451 145.145 309.417 145.1965 302.2963 156.0505 294.3651 168.1423 293.0683 170.1191 277.4601 193.9224 277.4154 193.9876 275.3365 197.0214 270.6338 198.8537 265.3905 198.9264 261.3041 200.9971 255.8861 207.8366 251.5401 209.402 250.5136 216.8428 Z" class="2805406"/>
<path d="M 118.4407 535.3206 118.8186 541.5275 118.821 541.571 119.4944 552.602 119.4577 566.0458 95.2923 561.7306 86.8773 562.867 74.4009 562.9655 72.729 564.4441 69.3962 564.4813 69.3909 565.7691 64.4548 567.9981 62.3603 567.8322 59.9736 570.6628 57.1438 569.6617 55.5317 573.7213 52.7911 575.9009 51.5294 579.672 55.0557 584.6841 50.9283 594.3383 48.128 595.6305 46.7408 598.1367 38.8272 598.2392 36.5239 602.8714 35.9057 607.1427 33.1776 609.5638 34.3936 615.6357 28.6456 617.0791 19.9799 614.575 19.2117 613.2555 20.7847 609.8305 18.0283 607.5065 15.6207 611.491 13.8915 608.1691 9.0624 605.1741 7.4358 595.5473 4.7023 590.1126 4.1335 580.571 6.5402 572.1232 3.3606 566.2898 1.9185 566.9733 1 564.823 5.3488 560.1356 4.6197 558.3655 4.7493 553.2959 6.1602 551.9581 12.4676 547.3904 15.959 536.2192 15.9522 536.2019 12.9056 528.2832 12.6057 527.4308 13.7691 522.61 15.7619 519.2406 20.855 516.5487 26.3241 515.0381 31.042 514.5106 33.194 517.1264 39.0699 517.2093 44.0818 519.5285 53.6532 519.7221 58.1678 517.5232 63.2107 517.3526 77.4818 518.564 85.399 514.3727 86.3355 509.0112 88.4882 512.1524 89.1017 513.048 91.9526 517.207 97.3961 525.1462 101.1997 527.0018 110.5874 536.3564 113.018 537.2803 117.6325 535.6127 118.4407 535.3206 Z" class="2805505"/>
<path d="M 356.6126 236.8882 353.1244 234.1169 335.0761 219.7713 327.2051 217.7852 311.8739 213.9139 303.2725 211.7406 294.7956 209.6292 286.5064 209.4502 284.5031 215.2499 283.0407 217.0982 281.095 217.012 280.309 220.3935 276.1138 218.5033 272.7108 221.3657 267.8566 221.4731 266.4381 219.5186 264.5868 220.6151 262.6417 218.2718 259.6713 219.9002 254.8891 216.1647 250.5136 216.8428 251.5401 209.402 255.8861 207.8366 261.3041 200.9971 265.3905 198.9264 270.6338 198.8537 275.3365 197.0214 277.4154 193.9876 277.4601 193.9224 293.0683 170.1191 294.3651 168.1423 302.2963 156.0505 309.417 145.1965 309.451 145.145 310.156 144.0708 310.1812 144.0321 319.2193 130.1602 336.4588 102.0851 343.6002 103.732 357.6244 107.8753 361.4467 110.2776 366.3126 114.1624 376.923 117.0148 381.3089 118.1903 387.5609 120.8785 391.1145 124.0738 399.282 132.6644 403.3509 134.4026 409.5945 135.7414 414.6718 137.1913 423.8193 145.5851 426.9503 149.8243 431.1508 160.3324 436.1734 165.2435 440.0316 166.7257 438.0086 172.4332 436.841 191.6702 426.8068 192.2602 425.0679 195.1843 421.9735 193.4639 420.0528 195.2417 423.0581 207.3893 414.8323 205.1707 413.2877 207.4227 414.2001 214.3029 410.6879 216.9214 407.3711 211.1937 404.8456 209.9871 402.7595 210.0243 401.3593 213.5009 397.467 215.6559 394.3141 216.8755 396.1787 214.4446 393.539 211.8702 394.1429 207.355 391.3854 204.3644 389.4403 206.8623 389.673 209.7739 387.2841 210.0586 385.8907 207.4815 384.7347 210.1114 384.8366 212.0584 387.4644 211.7652 385.086 216.82 382.5362 215.9147 380.2889 216.8894 380.744 214.528 379.4235 213.2935 374.0349 214.5251 376.8918 217.4936 376.8273 219.2688 373.7365 219.2796 375.3301 221.2922 371.7193 223.3191 372.3554 226.4338 368.6534 227.6399 367.521 231.3186 365.1344 229.7167 364.7137 232.7764 361.16 232.5318 356.6126 236.8882 Z" class="2805604"/>
<path d="M 603.8441 290.4626 604.2466 291.7054 608.5552 298.032 615.454 302.8908 615.7786 303.1036 620.299 305.2739 633.8973 307.4529 642.817 309.9557 645.159 312.4259 642.8259 316.253 647.825 318.7605 651.2667 318.7195 658.2419 324.2705 666.1755 326.87 663.8268 330.07 664.6579 331.9618 661.6617 331.7734 653.2383 330.3575 651.4906 331.775 649.7952 327.5888 645.7679 322.8836 642.6808 322.8554 641.3088 319.7977 633.6886 324.4941 629.4155 323.0964 625.9424 328.8037 624.3395 330.3002 623.9547 330.5583 623.0336 332.5859 619.1628 338.4173 615.6633 338.3849 608.269 335.1909 607.8665 331.5615 605.8814 329.8229 606.931 326.7636 604.7646 322.9598 603.0181 313.6365 601.6101 312.7511 594.738 308.4303 594.9412 298.7627 597.7394 290.163 599.5058 286.1201 602.3799 290.329 602.9581 291.2643 603.8441 290.4626 Z" class="2805703"/>
<path d="M 159.707 582.6537 164.2636 597.336 160.5574 607.2508 170.6278 612.9126 172.7142 612.8714 175.5463 618.5762 177.9759 620.1991 175.958 622.0836 176.2099 625.8802 175.8335 628.3663 178.9725 632.6495 176.8669 636.0181 181.8922 636.9665 183.4172 639.449 183.3379 643.4307 185.833 644.2998 187.6591 642.6832 188.8536 646.0496 193.6236 646.5983 195.8427 649.5337 198.799 644.587 200.6736 645.926 202.9178 643.9991 204.0828 648.547 206.35 648.5184 207.3344 645.52 209.6189 646.0334 212.6217 642.8548 214.8002 645.808 218.1076 645.9785 218.7143 641.9722 216.2937 639.9037 217.182 636.9158 224.9247 638.2935 227.7013 639.8588 230.1904 641.5192 239.0815 652.6134 242.3868 652.9308 246.6661 650.9565 248.7409 654.8521 254.7118 658.6809 257.0944 661.5627 260.0896 661.2976 264.1381 668.9876 269.4006 670.2238 272.5405 671.4381 271.8401 672.4725 273.7848 674.9518 271.1812 677.04 268.7398 679.3454 264.4091 676.6242 257.7421 688.1687 258.9251 695.5384 247.8323 705.1667 247.7973 705.1971 237.8732 712.9549 232.9804 716.8555 230.6722 713.9894 227.6821 711.2013 223.8782 712.4603 219.5774 706.2132 217.3858 707.965 213.9598 705.5203 209.3166 702.2542 207.624 702.6177 203.3625 698.5001 199.4481 698.2882 199.3669 698.2721 195.8817 698.7618 174.0811 688.1035 163.9034 675.5987 151.8173 660.6418 147.2883 655.816 143.1046 651.8878 136.5463 645.9469 135.8134 643.6949 132.9114 643.1858 129.6715 639.9072 128.614 635.3722 129.9883 633.0812 131.7362 634.8205 135.2417 629.4867 130.6147 618.1829 125.1824 612.7377 124.6496 609.763 118.3204 589.5668 132.7631 593.1936 133.0112 590.2797 135.7207 589.8442 139.6387 589.3131 150.9288 586.1444 159.6395 582.6545 159.707 582.6537 Z" class="2805802"/>
<path d="M 468.1475 533.9798 465.0317 534.8313 444.7413 540.3758 442.4277 537.5091 439.0199 538.325 431.8401 545.5911 419.9014 534.3784 420.5225 532.3274 415.9155 528.4457 415.9505 524.4776 416.9166 523.1433 415.7062 521.0954 418.4734 516.7657 420.493 518.3622 423.2085 517.4246 423.1959 515.2371 425.8029 512.9501 429.2788 514.0684 429.8343 515.7901 431.796 514.6786 434.6225 515.5465 435.5654 513.9147 437.0308 513.9237 438.577 513.0787 439.7175 515.3799 441.0404 513.917 437.3414 510.4317 439.3165 505.2902 437.7758 500.782 438.7849 500.8686 451.622 501.9712 451.5615 507.4128 452.7721 508.7012 449.9925 510.984 448.4931 514.6739 450.416 516.4675 450.0014 518.9286 451.4954 520.6783 448.1529 522.8117 454.0647 524.2364 456.8428 522.9238 457.6877 522.3173 459.7202 519.7814 462.1591 522.0852 465.18 523.6399 463.6728 526.6302 468.3211 527.6299 467.0675 530.6906 468.1475 533.9798 Z" class="2805901"/>
<path d="M 382.6237 418.3856 392.8033 434.1522 392.9192 434.2936 397.0696 439.3621 397.2195 439.6053 398.7813 442.1211 399.3238 443.0232 397.3033 443.5877 393.6868 444.4972 392.4275 442.7932 388.4635 442.6309 380.8499 446.7025 380.6229 451.2521 376.6477 452.8546 367.4612 461.152 359.9348 459.4717 355.5185 458.4852 347.0536 462.6334 338.548 466.8016 334.0195 456.082 333.2564 454.2758 333.2337 454.2432 322.3698 438.5537 321.924 437.9098 319.331 432.3114 317.4228 428.1915 301.5875 409.4182 312.8896 409.0242 325.2731 408.5913 328.8369 408.467 333.1592 408.3158 356.2766 383.5282 360.5014 389.7045 377.3453 402.9502 378.749 404.9904 378.4463 408.2135 379.6147 411.5708 382.6237 418.3856 Z" class="2806008"/>
<path d="M 558.9029 517.6692 546.7401 528.6225 539.5615 525.1642 533.0154 526.1573 530.4151 521.3956 508.1303 532.4356 507.4197 533.0321 510.6414 519.5613 514.753 512.6972 512.0696 508.471 507.9096 508.2474 505.1805 505.2529 501.107 506.053 499.1849 504.5657 497.6335 500.4851 498.6284 492.4732 499.295 489.5094 497.6892 486.5117 501.4661 484.4969 504.4636 482.898 504.8822 482.6745 505.061 482.238 505.9666 475.5358 522.1088 479.7331 532.9197 486.3362 532.8328 501.3651 533.006 503.8003 530.6323 505.2762 535.2614 510.2934 541.0539 513.2363 546.052 512.146 548.3329 512.3705 550.4699 514.662 554.2876 513.972 558.9029 517.6692 Z" class="2806107"/>
<path d="M 301.9341 713.0396 298.44 707.6688 303.188 707.6369 302.0599 704.9838 304.2953 702.867 301.1738 702.3846 299.1356 702.0297 305.2432 682.7166 309.7751 663.9831 308.8057 639.5083 309.1537 638.4075 309.1644 638.3721 309.9563 635.8688 313.6434 624.2096 314.2329 624.185 319.6224 625.6347 341.1756 631.4276 341.2939 631.4589 348.111 633.3965 350.4731 635.9784 353.2724 636.6145 353.9725 641.5986 359.6354 644.9346 362.8992 653.2098 363.3517 656.1218 363.4419 656.2337 369.8848 664.2248 355.6068 673.9921 348.8099 678.6419 348.642 682.9581 352.1869 686.5386 351.2575 688.8091 349.1575 689.2748 348.4366 691.1619 350.0987 691.9228 349.206 695.8108 339.8566 704.2162 327.4054 707.1137 322.2461 708.3141 321.5511 708.4759 301.9341 713.0396 Z" class="2806206"/>
<path d="M 312.0057 770.4792 321.1092 772.2901 327.2993 771.9788 338.3752 775.1991 342.6193 771.1689 342.8041 771.0832 345.2115 767.7776 353.9443 773.6384 355.6839 771.4865 361.9259 771.0238 365.3886 776.4286 370.756 778.9898 374.836 786.6075 370.1661 794.1532 370.2017 800.52 362.5613 810.5975 360.8967 818.241 361.5035 823.744 361.5272 823.8556 359.1622 825.7013 355.7171 826.7404 351.4794 824.0642 347.6154 824.6434 345.0779 831.3174 338.9563 832.7058 337.5935 835.8615 335.2841 833.7917 334.2862 834.0058 335.0166 835.1188 330.6056 835.3157 328.3879 832.3648 325.0511 832.3856 324.8082 832.275 320.6192 825.7712 318.7192 819.9145 311.1759 823.5399 306.9987 820.6591 296.6916 820.0147 294.2619 818.5492 291.9707 817.1682 290.7711 816.4441 287.981 814.7609 287.8896 814.7061 278.046 808.7671 278.0161 808.7492 268.7631 800.4303 268.1033 799.837 267.9809 799.7261 262.2765 794.5952 262.2251 794.5491 246.9699 780.8213 246.5804 780.4695 243.2553 777.4761 239.3554 773.9643 251.7171 766.1346 271.0349 783.2274 275.2109 786.9199 275.8057 787.4457 277.3008 788.7676 278.6785 789.0052 283.0483 781.6487 287.2048 782.0474 291.0626 780.5771 300.7613 772.6894 309.1936 772.9071 312.0057 770.4792 Z" class="2806305"/>
<path d="M 674.9382 327.9428 675.9257 326.369 685.1645 324.4387 690.9718 318.9243 696.0949 319.3663 696.7893 319.556 699.1886 320.5777 700.6833 321.7984 704.8674 326.885 710.3323 331.5693 712.0789 332.5376 713.9424 333.9443 714.9053 340.1708 709.6875 342.0675 687.1557 348.7099 674.9382 327.9428 Z" class="2806404"/>
<path d="M 430.3456 466.5727 435.6942 470.559 438.1232 470.5235 438.9409 472.4947 443.3681 473.7328 443.6392 475.9784 446.5603 476.6183 449.3224 479.4353 450.042 480.9707 454.2321 480.4541 457.7972 486.2692 459.3429 486.7219 458.3906 489.873 459.5584 492.4585 455.8836 493.7629 455.5616 496.2714 454.0794 498.0516 455.4069 498.5057 454.5163 501.8644 451.622 501.9712 438.7849 500.8686 437.7758 500.782 434.6213 496.7872 430.8811 495.2744 431.0681 490.7345 425.5682 489.9797 421.7549 484.0663 416.9945 482.9198 416.322 477.507 411.9313 473.2881 410.3446 473.3875 409.9397 469.1487 411.3008 466.3487 413.8443 466.1126 416.4302 463.2277 423.1596 463.0385 429.3753 466.7167 430.3456 466.5727 Z" class="2806503"/>
<path d="M 573.2595 505.885 572.3641 512.4564 574.2287 511.9409 575.3883 514.0705 575.5265 512.0946 578.3457 510.8992 579.5078 508.4939 580.5896 509.118 580.2688 512.9512 582.4352 514.3542 583.9436 512.3991 587.4171 512.0244 585.0175 510.936 585.8196 509.7353 586.76 510.8765 589.3218 509.887 591.3125 515.3304 593.3778 515.2216 593.0471 522.5236 594.6201 525.6777 592.6551 527.1794 594.0236 527.8272 592.5383 529.5886 590.8334 528.6193 587.7278 532.4442 581.0693 543.0972 569.5779 550.0401 568.9649 549.3552 568.3376 550.8312 564.7295 549.4344 563.8113 553.2141 560.3022 554.3125 556.2344 558.8763 554.7075 558.8523 554.8406 562.3317 552.6794 563.4061 551.0895 569.2602 546.8051 568.8854 545.179 570.3702 544.3446 568.7526 542.7088 570.7571 545.5598 573.8219 544.9229 576.025 542.1895 577.4752 539.8022 575.5217 538.7426 577.765 539.84 579.7599 538.3537 581.1024 535.0848 580.5036 533.7382 582.8768 530.9626 582.6661 530.6259 587.2338 527.293 588.2713 525.6205 591.6533 520.5741 591.1806 522.3093 584.3811 524.9782 578.7331 524.3641 572.1542 517.9755 566.0785 509.7427 564.8505 505.2545 558.1748 500.0645 554.232 499.6991 547.6689 502.9524 545.6381 505.229 545.9407 507.7113 541.7334 507.2715 533.8617 507.4197 533.0321 508.1303 532.4356 530.4151 521.3956 533.0154 526.1573 539.5615 525.1642 546.7401 528.6225 558.9029 517.6692 559.6058 516.998 565.3792 510.3274 573.2595 505.885 Z" class="2806602"/>
<path d="M 494.2884 606.6064 498.3367 615.6816 494.8142 624.8255 493.559 628.0858 477.9365 668.6742 475.4496 666.2317 470.2331 664.7087 466.4396 669.641 462.7368 674.5276 463.423 677.2723 467.4185 680.9537 465.9167 686.5135 458.629 681.5265 449.4274 678.1794 443.211 674.1199 440.8369 669.3428 439.7775 658.6419 428.3835 656.1676 414.8573 652.9426 414.6402 651.2467 410.3217 648.6561 408.751 645.6871 406.8639 640.3689 406.856 640.3401 405.9632 638.4091 405.6365 635.2384 395.9345 631.5757 397.634 628.872 393.98 625.798 393.0257 620.842 391.705 617.9795 394.717 614.9538 395.8399 607.4078 400.4685 569.8117 400.5927 568.8029 404.3547 569.1744 408.384 575.3934 412.122 577.5524 420.2682 577.4165 422.6124 575.1938 425.3779 577.8024 429.538 578.6571 431.5972 582.9417 435.7386 584.7723 443.2882 588.8935 448.6097 588.1382 452.206 593.9776 455.4141 592.5922 457.9477 596.886 461.0686 598.032 463.3324 600.4586 463.3733 603.8262 465.742 605.2768 465.9869 605.4268 467.5224 609.0172 471.2425 608.7036 473.9601 610.7496 490.159 604.8655 494.2884 606.6064 Z" class="2806701"/>
<path d="M 323.089 569.1552 318.0621 570.1752 317.2207 573.8297 314.667 574.0689 304.501 571.6801 302.9134 570.2029 299.7725 572.3227 293.9332 570.7007 290.6663 572.0343 287.056 570.6848 280.2329 564.5104 280.1145 564.1933 278.7793 561.3636 274.5638 560.3906 273.0352 555.4306 273.1324 553.1153 278.7866 546.8952 275.6975 540.9296 270.3416 532.6978 264.7968 532.2126 266.7286 529.3575 265.0625 525.6769 266.0817 522.6744 271.5463 518.0602 271.1689 516.987 274.1029 517.2285 274.9395 514.671 276.6112 515.7586 275.5704 512.0016 276.9911 509.0717 280.8968 510.0932 283.2426 512.2428 285.0038 516.9826 284.3243 520.9611 291.7736 530.8423 294.2824 533.9922 296.2997 536.5249 295.0347 538.1272 293.6314 541.053 295.7045 544.4485 296.8477 545.7937 300.6694 547.9152 303.3098 546.4327 306.5774 548.4048 307.0643 547.4404 310.0063 548.2478 309.1889 550.9653 312.2712 552.429 313.516 551.7555 312.8056 555.1823 315.1323 554.4289 314.8399 556.7127 311.6781 559.113 311.5945 559.1765 313.5526 560.4242 311.5819 563.3521 316.9163 566.1089 318.9479 565.561 323.089 569.1552 Z" class="2806800"/>
<path d="M 615.6633 338.3849 614.0295 341.0667 616.334 344.1526 614.7456 344.2933 612.1141 353.4665 607.1971 357.6262 606.6893 363.5953 602.7681 370.9507 599.951 374.7382 582.9565 376.5382 579.4577 383.9218 574.0256 379.6512 574.72 373.6401 574.9561 371.5946 580.4954 360.9884 579.6703 349.8193 586.7666 339.7375 589.0465 338.0222 591.4632 338.1427 599.8225 330.1302 604.7646 322.9598 606.931 326.7636 605.8814 329.8229 607.8665 331.5615 608.269 335.1909 615.6633 338.3849 Z" class="2806909"/>
<path d="M 390.6219 375.6913 387.5329 382.5512 393.2842 382.7062 394.1214 385.6948 395.6119 388.1625 394.6565 390.2014 397.8747 391.5286 394.5259 393.0973 393.5486 394.1223 394.6967 396.2207 397.3449 396.8818 400.4365 397.211 404.7499 393.6598 407.1689 398.1735 410.6523 396.9965 411.7382 399.0176 410.2224 400.4493 410.6339 403.6837 412.721 403.4367 413.6744 405.9602 411.6358 407.7361 412.4931 411.3644 416.6448 409.2027 419.2305 410.6972 407.776 414.9101 407.4304 415.028 387.1194 421.9594 382.6237 418.3856 379.6147 411.5708 378.4463 408.2135 378.749 404.9904 377.3453 402.9502 360.5014 389.7045 360.5029 389.6444 360.9609 368.5093 359.4975 359.3298 362.2449 347.3719 362.576 343.5002 363.0901 341.9736 363.8129 336.0158 361.7076 315.992 365.9037 320.3047 367.6991 322.1405 369.2586 328.0024 367.8188 334.4897 369.7226 336.9316 370.9079 336.5717 370.625 341.6017 371.5266 343.2693 368.861 347.0213 370.5108 347.9794 372.7089 346.1934 374.6786 346.8585 376.6363 352.4893 377.4846 351.3691 378.5777 352.5112 381.2817 351.9854 384.1209 354.2006 382.2097 355.2104 382.7123 358.7491 386.7382 359.6111 386.7237 363.4288 389.0408 364.5587 388.8625 366.4953 386.2356 367.436 385.1212 366.5761 383.9341 369.0627 386.9989 370.2689 386.8522 372.3555 386.8571 372.3811 387.2917 375.8267 390.6219 375.6913 Z" class="2807006"/>
<path d="M 233.1188 483.0488 235.014 486.5944 237.4072 485.5904 238.6928 485.7107 236.8502 489.1713 229.9768 497.3105 231.6182 499.5199 234.1979 498.7649 234.7285 502.1811 238.2444 504.8443 241.8356 504.1558 242.9159 505.1701 241.95 508.5373 245.6524 510.2256 247.2027 512.9457 242.5739 515.357 245.1058 517.9927 244.8101 523.5043 236.6277 527.8223 232.7238 528.2664 231.5356 533.8959 231.8563 535.3401 226.977 540.7557 228.1971 541.8736 225.4683 548.9579 221.532 553.9587 218.6792 556.1526 213.5057 557.9669 207.4138 563.076 196.5386 568.6235 193.0595 570.3982 190.6369 572.6119 186.889 585.0244 180.6155 580.3525 171.8859 583.1317 166.6334 584.8036 159.707 582.6537 159.6395 582.6545 150.9288 586.1444 139.6387 589.3131 135.7207 589.8442 133.0112 590.2797 132.7631 593.1936 118.3204 589.5668 118.5709 584.3827 119.4577 566.0458 119.4944 552.602 118.821 541.571 118.8186 541.5275 118.4407 535.3206 132.6977 529.617 141.0162 526.2888 145.7465 524.3967 149.3073 522.9722 150.52 522.4867 157.4258 519.7241 163.9687 517.1062 173.4891 513.2975 173.6663 513.2267 180.4208 510.5244 186.8434 507.9548 186.4416 505.3775 183.7183 487.8938 179.7139 462.1322 184.8211 462.4421 186.3568 466.6028 189.5175 468.994 192.6455 465.0164 199.1913 469.1142 204.9932 470.1159 206.928 471.2228 207.1151 476.5712 212.311 478.8072 214.3811 477.8301 218.7586 482.7277 222.5636 481.8641 226.35 483.2481 225.4233 486.1829 228.5922 488.1915 233.1188 483.0488 Z" class="2807105"/>
<path d="M 505.9666 475.5358 505.061 482.238 504.8822 482.6745 504.4636 482.898 501.4661 484.4969 497.6892 486.5117 497.0564 485.3504 495.0393 487.7921 488.1978 489.1407 479.9112 490.7743 476.3404 487.9087 474.761 484.4179 475.9017 479.5817 469.2106 480.6849 472.8354 477.6932 461.0215 479.688 448.3608 471.9789 453.806 465.3875 461.9108 459.953 463.4695 456.4657 461.0708 454.0081 460.8943 453.8276 459.7657 452.6706 468.5464 440.5869 468.5624 440.5632 470.2126 438.1059 477.503 428.6298 478.1799 412.909 484.551 415.2676 488.1811 418.2034 488.7216 422.4352 493.3692 430.1971 492.8821 438.0155 491.5061 439.0292 502.7409 437.4434 507.5771 438.3152 508.0471 438.4105 505.8425 451.8721 507.377 457.282 505.3646 459.1116 504.3192 464.206 508.3059 465.1266 509.117 468.0023 508.7099 472.3539 505.9666 475.5358 Z" class="2807204"/>
<path d="M 603.8441 290.4626 602.9581 291.2643 602.3799 290.329 599.5058 286.1201 597.7394 290.163 594.9412 298.7627 594.738 308.4303 585.953 307.8047 581.0761 307.4571 568.3047 306.1155 562.099 308.1481 579.3369 285.0236 589.1823 272.5949 594.8827 277.9763 602.9724 280.2331 603.551 286.0463 603.614 287.7134 603.8441 290.4626 Z" class="2807303"/>
<path d="M 119.4577 566.0458 118.5709 584.3827 118.3204 589.5668 124.6496 609.763 125.1824 612.7377 130.6147 618.1829 135.2417 629.4867 131.7362 634.8205 129.9883 633.0812 128.614 635.3722 129.6715 639.9072 132.9114 643.1858 135.8134 643.6949 136.5463 645.9469 143.1046 651.8878 147.2883 655.816 151.8173 660.6418 163.9034 675.5987 174.0811 688.1035 195.8817 698.7618 180.6113 706.6114 172.8764 710.5878 166.3705 716.1049 166.1744 716.2715 159.924 721.5717 159.9858 723.1483 162.8171 727.8811 162.26 730.5558 164.298 731.7749 163.3469 736.9466 158.8905 734.9165 156.7402 732.3004 155.4397 732.9481 147.8813 736.7144 143.1744 742.5629 137.932 749.9661 124.0659 774.2727 114.1848 791.2282 110.9419 788.4597 109.3934 789.1642 106.5863 787.4084 107.373 785.899 111.8642 784.0705 107.21 780.0879 110.5563 779.4612 109.9478 775.9609 108.4591 775.7824 106.0385 771.7811 105.1417 767.332 101.9971 767.8936 100.2135 764.2768 104.7637 764.4934 109.6998 761.6007 109.5119 758.7933 112.0986 758.3614 112.544 756.2962 110.5534 755.8961 108.3728 752.9967 112.2145 750.5033 113.4296 747.9522 112.0468 747.147 110.9064 748.3299 109.3676 744.7961 112.3995 743.5186 110.5513 739.6763 116.1956 736.799 116.3548 733.6854 114.4327 731.8025 115.5612 729.5901 114.7238 726.8636 117.7983 725.3355 115.2166 723.8482 113.1431 725.5761 112.0998 725.63 108.1909 723.5068 106.2782 725.2324 100.6313 720.7821 96.6343 717.8423 86.465 718.1583 80.0211 715.3207 79.7321 711.8597 77.859 710.4891 78.042 705.4056 76.1358 702.4807 78.5605 697.7952 78.4185 694.1781 76.8324 692.4558 70.5041 692.7406 68.217 690.8097 68.301 686.9607 66.1234 685.0198 66.8882 683.5362 69.3933 683.2642 74.3525 674.1289 71.5691 668.8904 70.2158 669.2458 69.8773 667.0995 67.4517 666.1596 67.3736 663.3752 65.1166 662.4829 63.4024 659.0117 64.3771 657.8412 60.9967 652.2736 63.1129 650.0362 62.7823 647.6263 54.4404 644.3083 52.7733 645.52 53.2525 649.0355 50.8755 649.2699 46.3259 645.0151 44.5203 642.1188 42.2223 641.7822 28.8119 630.2437 29.0901 628.0813 25.8626 625.0234 28.9057 619.6966 28.6456 617.0791 34.3936 615.6357 33.1776 609.5638 35.9057 607.1427 36.5239 602.8714 38.8272 598.2392 46.7408 598.1367 48.128 595.6305 50.9283 594.3383 55.0557 584.6841 51.5294 579.672 52.7911 575.9009 55.5317 573.7213 57.1438 569.6617 59.9736 570.6628 62.3603 567.8322 64.4548 567.9981 69.3909 565.7691 69.3962 564.4813 72.729 564.4441 74.4009 562.9655 86.8773 562.867 95.2923 561.7306 119.4577 566.0458 Z" class="2807402"/>
<path d="M 137.932 749.9661 141.9696 755.5809 146.4389 755.1454 149.1233 758.5121 158.902 765.7224 160.8168 764.0047 162.1226 763.9592 165.4216 770.4513 168.8194 770.7141 170.1571 769.5348 171.9122 771.1131 173.0699 772.7341 176.4416 776.0933 177.136 776.8553 180.3247 779.5529 183.1945 778.7933 186.1268 781.1143 186.1557 781.1485 186.1331 784.224 196.4148 791.1842 196.5588 796.398 198.3934 796.1336 198.9455 798.6612 199.1677 802.1003 202.3816 804.4602 205.4154 803.9185 206.0532 809.3182 209.4155 811.087 208.4137 815.3667 210.2762 816.6339 213.8483 816.0254 213.7656 813.909 215.5771 818.7403 189.683 818.8796 188.0564 823.1441 178.5961 849.3649 175.5564 848.7672 171.9779 843.7036 165.6482 842.6249 165.3977 837.4671 165.6386 836.2695 169.8094 835.9567 170.1965 833.5399 171.972 832.5359 170.9383 830.9078 163.6336 831.8801 162.6264 828.9952 157.9096 827.9689 160.8585 825.7619 164.3576 825.9266 163.5719 824.885 157.0127 824.293 153.1956 829.2609 152.4471 828.1085 149.6078 829.5398 148.7537 825.6704 146.5513 825.0851 148.0479 823.4833 146.9491 822.265 147.5218 818.0222 146.5809 817.0881 143.5536 817.0733 142.4056 814.8604 137.2318 814.3988 137.519 817.8337 134.5375 819.4263 133.9267 823.2979 131.6251 823.5815 130.2965 823.4772 131.2753 821.5864 129.9479 819.2947 125.6349 816.8095 127.6858 815.4786 127.0833 811.7896 124.7398 812.0509 123.4426 814.3187 121.4655 814.7529 121.6668 810.6043 120.4728 809.4807 116.1496 810.7896 114.7906 807.2398 120.1106 805.7374 119.676 801.9027 118.3071 802.263 115.7884 798.8095 114.1848 791.2282 124.0659 774.2727 137.932 749.9661 Z" class="2807501"/>
<path d="M 278.0161 808.7492 274.3696 815.5469 264.0581 834.7755 261.2989 839.9211 256.3437 849.1642 255.8543 847.8019 252.9301 850.3628 245.6615 845.0214 247.9417 838.1868 245.9247 833.7452 243.3878 832.5721 242.0302 828.6022 239.4893 827.7409 238.8988 824.3621 234.8068 822.7051 234.1819 821.0148 234.1231 820.8561 227.123 816.8655 225.6875 813.3386 222.9851 814.3404 234.9415 802.9915 239.3158 798.8397 239.3394 783.4643 239.349 777.7061 239.3554 773.9643 243.2553 777.4761 246.5804 780.4695 246.9699 780.8213 262.2251 794.5491 262.2765 794.5952 267.9809 799.7261 268.1033 799.837 268.7631 800.4303 278.0161 808.7492 Z" class="2807600"/>
</g>
</svg>
