<svg version="1.1" xmlns="http://www.w3.org/2000/svg" xmlns:xlink="http://www.w3.org/1999/xlink"  viewBox="-48.7551 1.0465 16.3601 17.2906"><g transform="scale(0.0001,-0.0001)"><path class="22" d="M-413226 -29213l19 -351l223 -120l272 -32l223 -588l-131 -202l54 -374l-547 -483l-167 -239l56 -195l-734 -1243l-21 -235l-144 -131l-92 -299l158 80l72 -257l111 -9l5 -201l402 237l227 -4l-29 -604l72 -377l167 -81l-230 -161l4 -282l-111 -174l-279 -41l-34 -206l241 -119l126 -342l-104 -561l341 -41l283 -159l402 -120l-139 -115l-82 -220l71 -288l-85 -138l-382 -374l240 6l99 -370l193 -196l23 -161l164 -134l87 -298l-87 -266l-203 -217l97 -270l-172 -180l573 165l306 -147l485 -33l72 -133l-290 -760l168 -193l70 -202l275 -52l-451 -632l168 -729l-10 -241l-133 -95l-246 -385l-16 -320l-175 -307l-4 -264l-119 -232l-13 -247l-130 -129l-178 -390l-210 -41l205 -63l-114 -323l479 -518l117 -50l-286 -349l-214 -191l-114 -256l-151 -101l164 -121l212 -33l-304 -562l37 -263l-101 -151l214 -225l-59 -162l136 -306l185 -101l129 84l381 -515l137 66l171 -355l-118 -275l354 -51l165 -374l296 -112l127 118l113 -192l105 51l41 -191l232 -151l42 -126l225 1l126 -156l204 -49l-31 -270l88 -304l-190 -113l305 -262l-125 -82l-27 -221l135 -109l-50 -303l-153 -113l-24 -165l191 -235l56 -179l-324 -162l213 -247l64 -201l-130 -150l3 -345l-76 -85l70 -265l138 -115l37 -305l97 -131l-10 -246l-115 -274l-240 -134l106 -308l142 -208l81 -765l2 -478l122 -363l-32 -177l164 -144l67 -554l-304 -478l-36 -238l347 -120l269 -817l-73 -221l60 -426l-50 -212l325 -402l92 -226l241 -183l73 -360l-260 -517l91 -351l-5 -426l88 -529l335 -310l140 -228l38 -228l144 -174l-102 -359l222 -226l587 -20l413 -355l927 -168l404 -24l188 -248l61 -261l199 -292l153 4l281 156l182 -110l-453 -514l-127 -49l-41 -443l82 -287l-47 -113l5 -476l224 -92l-321 -129l106 -156l-155 -142l-101 -232l-364 -474l54 -145l-292 -1066l19 -597l-121 -190l-178 -138l-69 -604l-1038 -407l-111 -161l-379 -69l-120 -167l-5 -209l185 -429l139 -209l358 -370l190 -369l47 -267l-137 -415l-310 -265l-70 -353l284 -251l768 -220l263 -297l39 -185l-78 -800l18 -276l-546 -1163l-51 -228l143 -342l-118 -123l-325 107l-113 -186l-213 -35l-14 -138l-327 -273l-105 -224l-258 -32l-77 -118l-366 -125l6 -503l-122 -172l-251 -4l-14 -405l-182 -202l-211 15l-140 222l-190 14l-60 -105l77 -202l-166 -107l42 -256l-246 -233l-387 299l-129 178l-214 -16l-75 -207l-316 -109l-86 -143l-24 -294l-266 31l-139 -402l-363 -293l-227 81l-173 -468l-125 -119l-330 -93l57 -314l-448 -284l-361 8l-127 -213l-368 -262l-214 7l-229 4l-127 -171l-303 -782l-104 35l-375 -441l-157 -8l-227 -323l32 -162l-154 -112l-86 -241l-141 -139l9 -189l-207 -98l-48 153l-357 -24l-277 -286l-360 -40l-39 -177l-154 -62l-349 4l-72 -144l-2 -419l-64 -284l-430 -307l-196 -191l-22 -216l-152 -144l-205 -582l-326 49l-144 -160l-167 -40l-122 -196l-416 133l-168 150l-276 -173l-188 154l-542 -93l-222 -187l-395 -87l-449 20l-270 -75l-280 85l-345 -262l-471 -62l-98 -167l-293 -165l-95 -322l-538 -273l-169 -416l-190 -113l-271 34l-98 -108l-18 -253l-217 -68l-401 54l-355 -20l-335 -433l-329 -4l-232 -70l-399 184l37 -237l-234 -250l-182 -99l-122 -299l-506 -1l-98 432l22 155l-230 94l-256 -105l-273 349l-397 60l-184 508l58 314l-155 305l-150 64l-708 -169l-42 240l-114 -53l-322 142l-142 138l-174 -145l-244 71l-117 -309l-207 -106l-155 205l-338 -118l-420 -80l-80 191l-219 116l-174 194l-210 10l-229 200l-188 347l-276 366l-154 115l-309 53l-285 -117l-396 -349l-419 -129l-426 -512l-675 -481l-622 -144l-329 -207l-152 -249l-169 -123l-215 -333l-147 -368l110 -240l-11 -266l87 -53l-80 -195l135 -100l340 -576l-32 -226l127 -347l214 -143l663 -277l324 -193l124 -199l-128 -123l-122 -307l-176 -58l-132 -275l154 -57l25 -161l-122 -194l56 -130l318 -170l-43 -397l-231 -201l-4 -264l-270 48l-393 -22l-139 -240l72 -220l-41 -306l-147 -404l-525 -584l3 -521l-581 -523l-197 -297l-15 -426l-205 -94l-402 48l-212 213l-296 -24l-80 -322l97 -285l-250 -331l-113 -451l-146 -347l-337 -111l-237 -400l-312 -57l-105 100l-423 177l-268 -126l-214 46l-236 264l-159 312l-270 168l-217 -93l-375 -427l-359 -116l-236 57l-212 -285l-276 -146l-269 28l-194 168l-309 34l-118 -57l-231 -343l-174 -99h-252l-135 -104l73 -434l-13 -201l-179 -173l-339 61l-428 -259l-11 -158l-295 -51l-224 -380l20 -196l-388 -349l-125 179l-248 -192l-467 -263l-639 448l-232 6l-333 319l-217 109l-320 -64l-113 61l-432 16l-582 102l-13 116l-267 -51l-114 106l-111 356l-169 92l-444 115l-284 233l-132 590l-139 216l-336 78l-185 283l6 388l-96 248l82 265l-93 161l163 210l309 254l43 179l-225 127l-104 185l31 436l-311 317l-164 232l-411 255l-80 132l-38 397l-307 188l-147 372l64 264l-142 326l-238 140l-443 -189l-427 -286l-338 -2l-110 -165l77 -312l-168 -366l-497 -277l-495 84l-346 199l-684 -192l-98 375l104 246l145 56l69 198l242 183l23 162l192 263l86 410l-102 82l167 559l94 151l115 507l-154 318l-80 359l172 543l203 256l80 504l-176 449l77 174l-24 258l132 283l-164 221l-55 405l141 164l-46 92l354 492l134 78l-176 437l29 188l-270 429l-223 181l-161 -29l-304 170l27 93l-160 348l99 77l-64 245l59 324l-81 423l86 46l-147 166l-172 429l58 368l-95 51l-31 460l-76 238l-142 117l-111 270l-223 276l-33 222l146 241l-33 127l153 152l-39 125l245 325l-127 138l206 202l8 130l307 242l173 -22l10 212l269 111l-22 127l247 6l190 496l54 324l194 209l180 -55l125 83l-288 185l230 171l179 317l-33 145l177 252l-43 492l150 235l-15 195l105 183l159 46l1 190l118 54l151 586l121 160l16 336l552 522l-53 123l315 343l-40 271l100 129l-90 194l172 250l52 270l-142 156l251 211l-159 108l216 382l41 300l180 190l-185 102l212 149l-197 202l154 77l-15 169l154 161l7 224l210 168l71 334l-46 223l183 150l-4 249l174 12l-44 173l207 -51l26 142l336 215l24 246l230 -33l417 417l706 62l274 218l192 -175l135 166l214 98l238 267l95 -75l622 187l372 -103l286 170l142 -12l185 151l190 -13l399 113l256 456l325 38l217 367l247 84l57 159l369 -169l378 163l122 -292l176 -68l243 33l89 356l157 271l212 154l222 64l402 524l162 307l408 74l81 232l537 360l232 46l343 263l234 104l171 -20l299 123l224 -101l341 438l-29 259l196 517l239 -13l281 322l64 340l254 46l47 430l307 197l155 297l161 -221l103 177l-175 342l274 24l119 -178l179 127l57 401l201 79l456 32l309 141l244 -288l186 193l297 -61l303 231l337 84l292 249l160 -126l141 125l320 -24l138 61l184 -109l238 34l352 -133l160 -155l372 -224l244 74l229 -423l302 -81l217 -305l297 -157l84 71l270 -43l291 94l31 168l238 -17l151 213l366 -36l336 50l286 281l396 54l418 -66l161 -130l218 18l301 133l187 196l352 -134l445 59l198 330l328 177l300 345l25 330l105 357l220 290l-47 341l178 283l-153 33l193 210l-19 356l-82 325l224 351l61 279l199 174l-97 119l-213 -39l133 485l-84 302l-217 250l-353 94l-195 217l-366 164l-119 460l-144 164l-392 45l-159 116l-267 558l205 166l49 379l-203 130l-149 242l-12 305l-118 152l225 418l-190 302l37 238l-90 546l53 140l192 70l-125 566l72 285l-171 198l57 204l129 100l488 110l103 322l162 147l51 253l258 308l42 303l324 138l147 137l107 320l287 53l162 203l429 248l115 384l4 279l-160 395l285 404l-28 492l-83 118l-88 478l-166 173l-49 426l-205 607l79 326l-421 495l-33 481l-249 169l-234 250l19 346l199 129l30 289l-195 130l-120 191l68 145l348 275l439 753l-53 320l225 455l11 156l-256 150l43 314l-80 156l-501 347l-207 -45l-124 104l10 419l-177 295l-92 710l119 256l452 498l439 30l-132 196l10 155l302 173l138 231l115 391l185 445l110 89l174 -90l113 375l448 299l156 192l51 347l354 681l168 149l-139 225l140 405l-146 282l55 237l367 428l166 84l148 400l361 151l405 520l-17 186l284 217l22 227l170 72l42 -275l246 -92l222 287l191 -13l-1 -128l178 -27l55 242l240 -40l392 197l384 -194l495 202l312 -34l141 114l-6 195l99 126l362 55l97 277l188 72l-48 96l98 259l205 73l-5 137l-357 81l185 256l392 39l429 126l335 48l269 308l48 269l124 49l129 -113l68 382l119 138l61 352l239 77l301 449l311 165l120 152l40 257l206 334l-141 258l-356 265l-185 288l21 436l164 89l-25 520l244 173l104 169l506 -528l334 -109l461 -411l249 -161l260 -262l520 -209l222 91l231 -107l255 -24l291 146l629 -136l186 64l251 -135l362 -101l158 62Z" centroide="-429684.86773217114,-73874.36466143052"/><path class="21" d="M-439991 -23927h0h0h0Z M-444489 -21323h0h0h0Z M-444716 -21001l-3 -180l-146 53l149 127Z M-444516 -20707l-315 -38l391 159l-76 -121Z M-444454 -20254l-122 -60l122 229v-169Z M-446014 -18390l87 -17l-263 -249l-144 68l273 262l47 -64Z M-446004 -18378h0h0h0Z M-445725 -18111l188 -122l-101 -302l-299 47l-4 352l216 25Z M-446222 -18173l-116 238l112 -46l4 -192Z M-446145 -17850h0h0h0Z M-446010 -18147l-161 -42l-13 252l272 254l126 -164l-248 -127l24 -173Z M-447382 -17010l-141 57l171 129l-30 -186Z M-447429 -16837h0h0h0Z M-447230 -16772l-141 25l139 125l2 -150Z M-447551 -15916h0h0h0Z M-446929 -15953h0h0h0Z M-447757 -15804h0h0h0Z M-447770 -15701h0h0h0Z M-448168 -15711h0h0h0Z M-447523 -15805v273l93 153l204 -95l-66 -150l-231 -181Z M-451346 -14942h0h0h0Z M-447637 -14842l-319 -448l101 -178l-112 -165l-216 47l-104 152l249 423l401 169Z M-451366 -14764h0h0h0Z M-447449 -15195l-403 -31l238 339l-109 265l189 41l96 -85l70 -425l-81 -104Z M-450708 -14676l-61 -85l-203 56l60 188l204 -159Z M-451511 -14400h0h0h0Z M-450785 -14207h0h0h0Z M-450001 -14119h0h0h0Z M-453983 -13998h0h0h0Z M-455160 -14030h0h0h0Z M-451485 -13927h0h0h0Z M-450686 -13677l-248 -641l-37 129l202 506l83 6Z M-450927 -13868l-167 -272l-53 202l-123 58l118 245l119 -18l106 -215Z M-456391 -13627h0h0h0Z M-454901 -13599l10 -143l-159 -158l52 244l97 57Z M-449816 -13583l59 -222l172 -43l-132 -242l-114 -6l-319 268l-43 253l116 113l261 -121Z M-450496 -13462h0h0h0Z M-450437 -13447l106 -420l-69 -120l-103 499l66 41Z M-454842 -13596l-100 56l145 140l-45 -196Z M-448773 -13454h0h0h0Z M-449433 -13720l-15 -190l-152 -117l-2 194l-115 -17l-72 281l149 296l231 -154l-94 -129l70 -164Z M-450436 -13396h0h0h0Z M-450041 -13207l319 -133l-70 -205l-253 139l-241 23l245 176Z M-456276 -13388h0h0h0Z M-456363 -13201h0h0h0Z M-455430 -13036h0h0h0Z M-456863 -12962h0h0h0Z M-449200 -12781l365 -66l248 -132l161 -363l-341 -208l-16 183l-314 128l105 119l-195 94l-13 245Z M-449433 -13720l-67 171l65 174l-150 169l-271 166l130 203l169 73l254 -95l72 -183l134 -18l-4 -234l208 -81l-162 -216l-260 -207l-118 78Z M-456464 -12709h0h0h0Z M-455324 -12666l-37 -220l-225 61l262 159Z M-455551 -12601h0h0h0Z M-458163 -12624h0h0h0Z M-458551 -12585h0h0h0Z M-456438 -12504h0h0h0Z M-457891 -12346h0h0h0Z M-455585 -11890l326 -226l-67 -203l-95 43l-341 -68l-170 -122l347 576Z M-456596 -12312l-63 -203l-175 -105l-135 182l-28 237l221 315l180 -426Z M-457845 -11906l86 -198l-95 -170l-132 314l141 54Z M-457617 -11874h0h0h0Z M-458194 -11590h0h0h0Z M-458168 -11558h0h0h0Z M-456158 -11157l120 -113l-6 -465l-118 -60l-146 -306l-6 -252l83 -3l-183 -793l103 -286l-53 -98l-574 -94l187 227l-119 73l140 196l-127 216l27 233l241 146l85 -191l146 272l-93 391l31 315l262 592Z M-458026 -11148l87 -94l-96 -265l-218 -10l-13 233l240 136Z M-459563 -11060h0h0h0Z M-418141 -27393l-104 -169l-244 -173l25 -520l-164 -89l-21 -436l185 -288l356 -265l141 -258l-206 -334l-40 -257l-120 -152l-311 -165l-301 -449l-239 -77l-61 -352l-119 -138l-68 -382l-129 113l-124 -49l-48 -269l-269 -308l-335 -48l-429 -126l-392 -39l-185 -256l357 -81l5 -137l-205 -73l-98 -259l48 -96l-188 -72l-97 -277l-362 -55l-99 -126l6 -195l-141 -114l-312 34l-495 -202l-384 194l-392 -197l-240 40l-55 -242l-178 27l1 128l-191 13l-222 -287l-246 92l-42 275l-170 -72l-22 -227l-284 -217l17 -186l-405 -520l-361 -151l-148 -400l-166 -84l-367 -428l-55 -237l146 -282l-140 -405l139 -225l-168 -149l-354 -681l-51 -347l-156 -192l-448 -299l-113 -375l-174 90l-110 -89l-185 -445l-115 -391l-138 -231l-302 -173l-10 -155l132 -196l-439 -30l-452 -498l-119 -256l92 -710l177 -295l-10 -419l124 -104l207 45l501 -347l80 -156l-43 -314l256 -150l-11 -156l-225 -455l53 -320l-439 -753l-348 -275l-68 -145l120 -191l195 -130l-30 -289l-199 -129l-19 -346l234 -250l249 -169l33 -481l421 -495l-79 -326l205 -607l49 -426l166 -173l88 -478l83 -118l28 -492l-285 -404l160 -395l-4 -279l-115 -384l-429 -248l-162 -203l-287 -53l-107 -320l-147 -137l-324 -138l-42 -303l-258 -308l-51 -253l-162 -147l-103 -322l-488 -110l-129 -100l-57 -204l171 -198l-72 -285l125 -566l-192 -70l-53 -140l90 -546l-37 -238l190 -302l-225 -418l118 -152l12 -305l149 -242l203 -130l-49 -379l-205 -166l267 -558l159 -116l392 -45l144 -164l119 -460l366 -164l195 -217l353 -94l217 -250l84 -302l-133 -485l213 39l97 -119l-199 -174l-61 -279l-224 -351l82 -325l19 -356l-193 -210l153 -33l-178 -283l47 -341l-220 -290l-105 -357l-25 -330l-300 -345l-328 -177l-198 -330l-445 -59l-352 134l-187 -196l-301 -133l-218 -18l-161 130l-418 66l-396 -54l-286 -281l-336 -50l-366 36l-151 -213l-238 17l-31 -168l-291 -94l-270 43l-84 -71l-297 157l-217 305l-302 81l-229 423l-244 -74l-372 224l-160 155l-352 133l-238 -34l-184 109l-138 -61l-320 24l-141 -125l-160 126l-292 -249l-337 -84l-303 -231l-297 61l-186 -193l-244 288l-309 -141l-456 -32l-201 -79l-57 -401l-179 -127l-119 178l-274 -24l175 -342l-103 -177l-161 221l-155 -297l-307 -197l-47 -430l-254 -46l-64 -340l-281 -322l-239 13l-196 -517l29 -259l-341 -438l-224 101l-299 -123l-171 20l-234 -104l-343 -263l-232 -46l-537 -360l-81 -232l-408 -74l-162 -307l-402 -524l-222 -64l-212 -154l-157 -271l-89 -356l-243 -33l-176 68l-122 292l-378 -163l-369 169l-57 -159l-247 -84l-217 -367l-325 -38l-256 -456l-399 -113l-190 13l-185 -151l-142 12l-286 -170l-372 103l-622 -187l-95 75l-238 -267l-214 -98l-135 -166l-192 175l-274 -218l-706 -62l-417 -417l-230 33l-24 -246l-336 -215l-26 -142l-207 51l44 -173l-174 -12l4 -249l-183 -150l46 -223l-71 -334l-210 -168l-7 -224l-154 -161l15 -169l-154 -77l197 -202l-212 -149l185 -102l-180 -190l-41 -300l-216 -382l159 -108l-251 -211l142 -156l-52 -270l-172 -250l90 -194l-100 -129l40 -271l-315 -343l53 -123l-552 -522l-16 -336l-121 -160l-151 -586l-118 -54l-1 -190l-159 -46l-105 -183l15 -195l-150 -235l43 -492l-177 -252l33 -145l-179 -317l-230 -171l288 -185l-125 -83l-180 55l-194 -209l-54 -324l-190 -496l-247 -6l22 -127l-269 -111l-10 -212l-173 22l-307 -242l-8 -130l-206 -202l127 -138l-245 -325l39 -125l-153 -152l33 -127l-146 -241l33 -222l223 -276l111 -270l142 -117l76 -238l31 -460l95 -51l-58 -368l172 -429l147 -166l-86 -46l81 -423l-59 -324l64 -245l-99 -77l160 -348l-27 -93l304 -170l161 29l223 -181l270 -429l-29 -188l176 -437l-134 -78l-354 -492l46 -92l-141 -164l55 -405l164 -221l-132 -283l24 -258l-77 -174l176 -449l-80 -504l-203 -256l-172 -543l80 -359l154 -318l-115 -507l-94 -151l-167 -559l102 -82l-86 -410l-192 -263l-23 -162l-242 -183l-69 -198l-145 -56l-104 -246l98 -375l-277 102l-223 -20l-66 -114l-149 214l-55 571l-158 65l-537 -332l-375 34l-331 -71l-387 396l-388 22l-274 -94l-448 84l-117 -103l-431 144l-160 486l-368 393l-246 36l-122 300l4 292l-203 282l7 328l109 200l-130 170l80 220l-21 206l-188 75l113 147l-168 116l26 174l-183 287l-229 -111l-266 -20l-173 143l103 266l-268 225l-275 -30l-207 99l-90 469l403 276l69 357l149 248l-11 181l532 271l-354 395l-12 124l158 143l-133 162l-194 -57l-78 130l-396 127l-79 306l152 156l-332 196l-281 -61l-293 17l-310 -175l-116 120l73 206l-77 136l-328 288l-196 354l-165 -48l-118 158l279 350l-97 174l92 284l-31 126l-280 72l25 203l-129 251l-235 25l-113 214l-108 -129l-196 5l-27 516l169 6l-95 159l-186 31l-357 -180l-245 3l-339 120l-344 56l253 373l-251 145l246 52l81 170l149 21l78 210l-51 138l247 93l221 272l-215 376l514 194l234 25l1 173l141 230l-3 381l-131 161l-138 358l171 42l-3 139l274 221l-22 167l-272 213l36 277l150 197v243l190 42l33 174l126 -39l169 255l-63 525l200 161l88 -94l229 203l49 254l-111 263l117 -25l126 368l324 -59l220 -124l244 370l729 306l152 -87l719 85l361 482l-15 334l215 374l-212 164l-65 151l233 528l28 179l205 159l20 157l-131 234l28 305l-134 290l-284 242l-389 204l-47 181l-423 244l-267 -26l-193 -101l-99 83l-127 -139l-352 45l-382 -168l-82 44l-286 -290h-306l-167 -120l-200 60l-164 -116l-56 134l-235 -314l-131 65l-320 -164l-151 -197l-64 -229l-389 -187l-418 46l-155 258l-29 221l-216 173l-229 -24l-14 523l-130 157l-202 -25l-17 304l-87 -13l-237 251l-121 279l-93 -61l-508 389l114 49l-229 495l-24 148l-342 127l-169 -31l-37 268l135 157l-290 38l-62 182l235 64l-420 442l-147 -133l195 -153l-292 -101l-66 254l52 298l-221 128l56 180l-409 129l158 197l-40 108l-354 66l-171 -68l-1 338l-164 115l-81 440l-155 46l-301 -75l-129 -105l-270 92l128 248l538 233l378 256l76 304l-215 429l-431 285l-491 14l-154 -82l-267 -327l-166 26l-286 511l-118 129l-464 214l-124 216l47 327l345 249l166 7l337 -144l159 77l170 221l90 304l212 277l225 131l265 315l195 416l-8 312l220 389l5 351l-226 407l129 411l231 390l-36 251l40 364l-54 185l299 500l62 195l-26 245l87 390l401 545l-178 526l242 615l13 416l314 613l-81 364l-161 211l-218 491l-111 670l59 569l-194 402l173 583l-5 685l-112 385l-243 524l-161 190l-107 288l3 205l193 481l-107 663l13 308l-170 392l-282 330l-319 295l-203 -69l-381 103l-481 380l-776 416l-832 -64l-162 103l-239 334l20 256l-52 387l-147 178l-501 211l-656 54l-177 -56l-334 -277l-250 -59l-349 78l-644 60l-298 107l-219 164l-651 285l-352 75l-353 282l-1085 -187l-139 -68l-331 17l-294 -214l-122 -166l-75 -528l-156 -283l-220 -253l-240 36l-281 249l-212 23l-198 -144l-129 -329l-430 39l3220 2511l-36 194l178 -71l452 334l3724 2935l1852 1441l237 283l384 -44l292 -156l449 -22l429 376l251 137l284 344l217 505l245 209l346 478l141 347l123 126l-32 280l375 410l128 6l282 190l125 181l160 48l-65 244l136 147l-4 252l257 43l-93 372l29 374l151 103l-27 116l155 322l136 -112l287 287l317 179l41 119l179 -9l298 324l113 18l81 426l250 100l15 182l146 -33l28 226l214 -42l80 204l114 -8l105 499l102 83l121 307l-91 121l117 140l-70 154l141 257l-83 204l175 171l-200 134l164 139l-117 53l221 544l-86 188l204 -34l4 176l152 139l255 37l71 154l-121 187l223 69l-92 158l214 -29l-82 148l140 147l-143 95l147 214l19 430l388 153l115 222l301 -70l291 311l169 19l-122 137l156 65l-95 142l175 100l-42 207l274 34l4 245l213 78l-140 62l274 267l-52 100l219 43l-8 315l-165 -64l-50 129l174 -6l74 132l211 -111l-34 221l311 75l-65 172l93 97l-1 486l138 57l-100 181l171 -34l-98 234l138 116l-182 72l-10 183l135 50l-88 268l-171 225l110 59l298 -88l93 188l-71 147l185 -81l42 303l261 -160l-126 319l15 174l-284 -87l-93 107l47 265l-83 166l-105 -64l-173 229l-38 230l79 169l280 77l148 183l-7 236l159 54l89 -238l157 301l763 179l-49 215l191 120l11 188l-121 67l75 194l213 -83l548 203l-179 119l74 161l-112 220l79 94l-77 168l-1 362l314 398l-175 116l-300 -234l-100 148l339 340l33 367l147 182v155l-141 252l212 75l222 -227l231 210l194 68l124 289l176 175l368 245l-174 76l299 272l30 277l-77 129l50 246l128 59l101 324l-81 252l126 260l45 335l103 184l-97 311l-127 83l343 446l-208 303l-285 76l-492 -113l-122 135l-47 252l117 309l211 112l294 -53l190 115l265 -100l154 241l304 68l184 227l-99 406l174 235l-51 216l184 94l-84 642l-299 440l343 295l54 114l-173 142l156 149l77 265l164 172l83 334l-242 39l42 145l-209 56l-139 298l165 267l-85 156l158 207l260 44l271 58l20 353l216 293l95 -217l-21 322l167 213l177 349l122 -246l15 263l104 166l226 1l66 -386l-237 -373l284 138l-21 -216l-337 -74l44 -299l97 245l332 38l-109 -587l-1 -327l111 11l92 280l-50 87l420 747l11 203l130 189l224 97l-122 81l245 121l93 -50l37 -339l-193 -259l14 -119l-288 -82l-267 -342l68 -85l273 303l109 -92l-94 -366l70 -83l-398 -250l375 29l185 140l18 -215l-339 -347l261 12l175 332l28 336l130 -62l-22 234l269 202l72 -78l-146 -320l86 -229l-431 -618l524 341l170 327l11 240l83 -89l322 628l-75 65l438 47l116 -206l-361 -371l-88 -442l295 -383l-75 -308l116 -163l-8 -200l138 -95l-237 -134l-22 -332l103 211l146 32l409 -51l221 297l-53 322l72 318l339 212l24 -190l-125 -242l281 237l75 -421l179 160l24 -245l-180 4l149 -115l196 372l120 -190l-58 -308l39 -268l-194 -265l82 -77l270 225l212 427l-5 285l331 85l-97 80l383 118l74 -177l-86 -359l-329 -218l-101 51l-145 -144l-93 -391l40 -426l-111 -189l328 -249l-84 237l118 277l194 238l149 71l-33 -375l235 406l210 233l13 287l223 212l-103 188l178 152l243 -104l166 -253l-63 -167l122 -123l21 -493l-236 -210l-379 -105l-243 -151l330 -16l34 -214l201 177l239 -200l-202 -489l25 -143l-140 -87l-97 -221l10 -314l-172 -509l-100 -419l131 -249l140 39l-24 205l232 786l38 249l241 161l269 -344l153 44l-67 195l61 274l144 268l269 190l105 159l187 -45l206 474l139 81l35 -275l172 -224l-73 535l205 360l147 -339l-99 -247l507 38l144 -125l359 89l163 -206l247 16l88 199l180 -34l-168 -122l391 46l-90 55l273 324l210 87l32 184l245 125l318 -48l-270 -471l7 -211l-309 -4l-205 -241l163 -118l-40 -162l-266 -81l-11 -283l73 -353l341 85l164 -222l202 307l33 195l336 -250l201 -340l-169 458l157 63l122 207l12 -286l-93 -213l552 517l126 -223l-182 -227l-27 -159l207 297l99 -93l44 247l164 77l46 -194l238 -340l-139 -453l-150 216l-61 -61l-592 -50l-176 -234l-137 -52l-153 135l93 -226l-254 -140l149 -26l121 -168l6 159h166l234 -148l313 65l49 -165l-547 -509l-375 -73l257 -39l463 154l140 138l388 55l-11 -276l147 285l-47 415l337 -70l277 -163l-340 -303l-92 -211l92 -213l165 -153l-285 -254l183 -109l265 198l168 -98l244 120l115 240l123 -158l-182 -323l-280 -127l-127 -132l215 -28l207 92l149 -172l19 251l104 -53l168 -400l151 -204l-4 -191l-247 106l279 -251l-24 -368l171 -28l-34 -186l-270 -141l8 -880l286 18l370 -275l-43 -151l194 -74l228 -254l111 -491l283 -618l-135 -265l-24 -347l-135 -207l-267 -48l841 -871l235 139l420 39l844 196l306 169l72 145l482 245l666 -1l53 -357l-447 -11l-274 -158l156 -59l1002 -16l184 -153l-197 -639l-169 -287l148 17l252 357l287 244l265 512l81 273l350 449l298 284l419 210l243 -147l326 670l112 97l498 207l523 382l277 -101l218 -175l389 -804l340 -458l111 168l448 254l550 56l130 -91l644 -44l1193 -347l224 -140l570 -216l1155 -581l495 -200l951 -440l361 -218l478 -148l190 49l213 -268l232 -12l69 -229l-124 -288l177 213l-109 413l-278 17l128 120l-218 160l229 -69l591 -619l393 -311l662 -367l420 68l250 -323l-48 200l499 -144l694 -31l443 266l166 -108l291 -5l361 269l180 2l-47 -177l498 -85l638 3l285 64l331 -21l-75 -142l334 -559l122 272l-47 146l402 -54l240 50l386 -34l192 39l353 -59l302 12l151 -173Z" centroide="-452791.36415276147,-50604.25623619076"/><path class="23" d="M-372532 -48315l-1931 -493l-1939 -455l-385 -1288l-317 -60l-146 -95l-84 -300l-315 -390l-114 -475l-136 -273l70 -178l-89 -365l87 -261l-643 -452l-163 -340l33 -326l-291 -456l-27 -285l-100 -199l-324 -46l-160 -314l-394 -191l-83 -296l-156 -89l-227 -452l-167 -67l-286 -240l-52 -604l119 71l283 -68l-146 -317l-389 -426l-184 -283l-37 -489l-407 -449l-15 -199l-373 -155l-425 -373l-81 -126l1 -312l-231 -256l-309 -183l-133 100l-454 -114l-117 90l-49 260l-313 -49l-342 -269l66 -116l-213 -155l-144 -321l10 -126l-253 -226l-6 -113l-259 -24l-20 -204l95 -93l-86 -161l-175 -63l-86 -179l-251 -163l128 -248l-153 -148l50 -282l145 -82l-105 -193l-194 -33l-94 -135l299 -124l272 19l154 93l105 -128l-354 -270l-162 -374l-426 -446l9 -235l-308 -439l138 -224l-175 -114l-103 -263l100 -120l-50 -189l-212 -241l-5 -107l237 -443l330 -410l-221 4l30 -115l-158 -74l-211 -244l-25 -257l-548 -350l-260 -67l5 -366l-83 -122l219 -219l-229 -190l733 -357l19 -113l200 -75l-74 -194l208 -253l-210 -385l9 -382l-113 -210l426 67l204 -79l95 -388l323 -182l242 89l68 -241l92 -21l83 -281l-151 -207l11 -177l-304 -488l-167 -346l104 -193l-206 -97l25 -130l-416 -25l141 -273l-151 -146l-93 -636l-336 -166l-222 -45l-41 -353l-170 -119l-107 -265l-177 43l-283 -144l-308 56l-46 -135l92 -190l-131 -223l-416 81l-101 -118l-15 -241l-342 30l4 -125l-244 -18l-68 -226l66 -102l-252 -383l21 -150l-385 47l-150 280l-126 -127l-248 55l-111 -202l-281 -180l24 479l-158 494l-359 412l-288 38l-373 258l-442 -155l51 143l-229 308l-365 -52l-45 98l-271 106l-454 361l-358 41l-153 307l-385 9l-112 400l291 310l-52 306h-317l-99 71l-341 -184l-164 19l-187 508l-215 -25l-125 83l-211 -30l-191 462l-256 223l-348 208l-352 109l-873 -55l-290 69l-259 -126l-428 -29l-744 -335l-444 -63l-826 -12l-679 238l-251 169l-422 402l-478 4l-400 -335l-102 -215l-329 -125l-397 10l-155 60l-514 332l-233 95l121 190l-19 597l292 1066l-54 145l364 474l101 232l155 142l-106 156l321 129l-224 92l-5 476l47 113l-82 287l41 443l127 49l453 514l-182 110l-281 -156l-153 -4l-199 292l-61 261l-188 248l-404 24l-927 168l-413 355l-587 20l-222 226l102 359l-144 174l-38 228l-140 228l-335 310l-88 529l5 426l-91 351l260 517l-73 360l-241 183l-92 226l-325 402l50 212l-60 426l73 221l-269 817l-347 120l36 238l304 478l-67 554l-164 144l32 177l-122 363l-2 478l-81 765l-142 208l-106 308l240 134l115 274l10 246l-97 131l-37 305l-138 115l-70 265l76 85l-3 345l130 150l-64 201l-213 247l324 162l-56 179l-191 235l24 165l153 113l50 303l-135 109l27 221l125 82l-305 262l190 113l-88 304l31 270l-204 49l-126 156l-225 -1l-42 126l-232 151l-41 191l-105 -51l-113 192l-127 -118l-296 112l-165 374l-354 51l118 275l-171 355l-137 -66l-381 515l-129 -84l-185 101l-136 306l59 162l-214 225l101 151l-37 263l304 562l-212 33l-164 121l151 101l114 256l214 191l286 349l-117 50l-479 518l114 323l-205 63l210 41l178 390l130 129l13 247l119 232l4 264l175 307l16 320l246 385l133 95l10 241l-168 729l451 632l-275 52l-70 202l-168 193l290 760l-72 133l-485 33l-306 147l-573 -165l172 180l-97 270l203 217l87 266l-87 298l-164 134l-23 161l-193 196l-99 370l-240 -6l382 374l85 138l-71 288l82 220l139 115l-402 120l-283 159l-341 41l104 561l-126 342l-241 119l34 206l279 41l111 174l-4 282l230 161l-167 81l-72 377l29 604l-227 4l-402 -237l-5 201l-111 9l-72 257l-158 -80l92 299l144 131l21 235l734 1243l-56 195l167 239l547 483l-54 374l131 202l-223 588l-272 32l-223 120l-19 351l636 370l257 -54l524 24l773 -119l901 67l510 113l61 90l360 -23l205 122l316 -5l52 69l187 -288l493 155l191 151l1092 70l214 -29l705 105l413 215l129 261l236 74l613 -267l445 -28l602 86l418 -47l331 12l400 -77l330 7l233 -179l196 -43l155 144l246 -29l235 -143l277 34l263 -65l77 67l388 -177l83 62l537 -300l93 29l545 -314l465 -364l298 -122l250 -234l438 -207l158 52l352 -290l162 48l187 -73l228 -393l514 -167l237 -206l341 -155l158 -191l506 -166l367 -300l190 104l214 -72l191 -207l283 -147l363 -18l313 -216l375 -472l216 -367l304 -222l255 -7l225 -380l353 -280l298 91l494 -57l362 -393l250 -484l268 -99l361 -332l400 -52l500 -608l162 -121l507 -244l208 -233l360 -214l266 -15l420 -126l342 -162l416 -73l209 188l103 -42l286 -587l745 -1161l418 -416l404 -148l483 -550l285 -396l92 -46l315 -454l160 -139l239 -426l342 -271l695 -737l280 -182l301 -332l835 -694l682 -344l368 -26l11 -253l155 -133l108 -319l214 -357l320 -242l495 -553l426 -361l309 -165l263 -49l414 183l221 -209l621 -244l729 -211l435 -341l178 -281l274 -770Z" centroide="-396156.05923699646,-50933.35269250492"/><path class="26" d="M-348337 -75486l97 -491l158 -194l-255 -655l-125 -59l157 -117l66 -558l-118 -299l-24 -251l-91 -22l147 -602l87 -131l45 -373l-225 -882l-186 -188l-1 -137l-355 -790l-221 -627l-18 -409l-244 -332l-75 -386l80 -65l-57 -221l119 -243l-167 -67l21 -172l-439 -1038l-91 -378l-21 -447l-241 -87l-130 -404l-254 -365l1 -196l-160 -251l73 -183l-111 -153l35 -205l-183 -200l24 -210l-145 -119l-156 -274l24 -403l-229 -468l-187 233l-402 17l-264 61l-149 -45l-349 107l-1069 267l-167 136l-382 -58l-173 138l25 119l-315 -120l-220 116l-497 -187l-280 -244l-183 -45l-184 -169l-242 8l-149 -162l-425 -81l-346 -124l-346 196l61 285l-182 214l-128 -127l-150 29l-29 -129l-234 -15l-117 129l-506 -23l-128 -234l-183 -9l-201 -157l-638 -67l-374 -74l-184 -255l-420 -127l-4 -299l203 -155l-229 -347l-245 -90l-468 -40l-42 -202l-192 -65l-145 -301l-304 11l96 -378l-75 -257l-302 -66l-266 -129l-276 -309l-267 -5l-463 -119l-97 165l-443 -316l-110 35l-42 -222l-618 -201l-187 -100l53 -389l-399 -93l-85 171l-197 -33l-99 126l-259 11l-189 169l-724 249l-761 -170l-296 199l-462 -275l-130 -312l13 -164l-131 -120l80 -143l-250 -113l-236 217l-243 69l-209 369l-233 9l-144 175l48 156l-335 354l-258 54l-135 -191l-344 -157l-39 239l85 136l-386 228l-360 -247l56 146l-183 465l-352 302l-352 564l-103 -8l-309 394l-579 473l-521 82l-237 108l-64 183l-472 83l-100 -95l-398 16l-144 -190l-282 -160l-197 181l-241 -115l-177 132l279 95l-269 299l-51 227l-155 142l-126 281l-94 34l-139 299l-294 -131l-119 -163l-290 -128l53 -202l-132 -176l73 -64l-128 -456l-140 -218l-265 -153l-82 -196l-499 -451l-172 -312l-163 -130l-73 -233l-152 -77l-321 -2l-38 -90l-365 -97l-262 15l-361 -364l-156 -91l-124 -241l-10 -203l-222 -286l-235 -57l-345 -328l-130 393l-370 733l75 160l-87 290l-299 311l-27 242l168 201l-157 55l-8 212l311 229l-128 333l-208 238l-389 -109l-411 -363l-455 109l-545 449l-162 339l64 197l340 261l96 375l-101 142l-326 195l-394 79l-186 -77l-195 -262l-176 -367l-27 -641l-251 -294l-390 150l-195 399l2 289l-129 407l-331 174l-573 514l-194 73l-518 23l-598 -119l-240 -89l-255 117l-219 320l-435 276l-1011 208l-235 200l-135 -138l-475 -40l-169 262l-13 366l56 72l-224 251l-117 384l-113 131l-587 52l-193 207l-219 44l-296 -87l-195 -212l-167 2l-91 -189l-244 -143l-293 -61l-113 -101l-838 -447l-788 -36l-42 -197l192 -649l5 -395l-217 -146l-527 55l-410 -251l-311 57l-431 -61l-300 -92l-83 -354l219 -378l49 -348l-144 -291l-181 -158l-511 -669l-399 -126l-676 -19l-118 -152l-525 -321l-331 30l-336 355l-424 175l-342 -281l-136 -349l-72 -346l78 -337l-144 -456l-90 -442l-95 -118l-183 -478l36 -155l-204 -245l-371 29l-269 201l-212 -162l-167 -382l-117 -141l-430 134l-301 -169l-43 -182l-200 -218l-345 -56l-210 -129l-607 153l-408 213l-277 21l-269 -106l167 287l-49 125l219 103l-34 319l92 342l-192 218l170 185l194 -93l115 190l213 85l68 207l-141 242l247 473l25 271l-177 214l-248 -32l-227 168l-252 54l10 137l-474 66l-169 185l-42 417l-91 276l-178 301l6 280l-98 44l-49 247l-150 77l-138 266l-14 180l-249 356l-250 -95l-327 215l-213 -53l-194 -153l-116 91l65 262l-114 229l-671 54l-256 371l163 394l-638 -72l-488 66l-124 -142l-253 -31l-153 -135l-269 80l-292 -3l-240 200l214 -7l368 262l127 213l361 -8l448 284l-57 314l330 93l125 119l173 468l227 -81l363 293l139 402l266 -31l24 294l86 143l316 109l75 207l214 16l129 -178l387 -299l246 233l-42 256l166 107l-77 202l60 105l190 -14l140 -222l211 -15l182 202l14 405l251 4l122 172l-6 503l366 125l77 118l258 32l105 224l327 273l14 138l213 35l113 186l325 -107l118 123l-143 342l51 228l546 1163l-18 276l78 800l-39 185l-263 297l-768 220l-284 251l70 353l310 265l137 415l-47 267l-190 369l-358 370l-139 209l-185 429l5 209l120 167l379 69l111 161l1038 407l69 604l178 138l233 -95l514 -332l155 -60l397 -10l329 125l102 215l400 335l478 -4l422 -402l251 -169l679 -238l826 12l444 63l744 335l428 29l259 126l290 -69l873 55l352 -109l348 -208l256 -223l191 -462l211 30l125 -83l215 25l187 -508l164 -19l341 184l99 -71h317l52 -306l-291 -310l112 -400l385 -9l153 -307l358 -41l454 -361l271 -106l45 -98l365 52l229 -308l-51 -143l442 155l373 -258l288 -38l359 -412l158 -494l-24 -479l281 180l111 202l248 -55l126 127l150 -280l385 -47l-21 150l252 383l-66 102l68 226l244 18l-4 125l342 -30l15 241l101 118l416 -81l131 223l-92 190l46 135l308 -56l283 144l177 -43l107 265l170 119l284 -131l168 -254l440 -352l184 -438l176 -162l119 90l142 -100l207 76l182 -56l284 46l8 112l318 80l69 127l475 -123l56 160l217 70l248 303l128 -178l180 12l146 -226l-38 -121l137 -168l-146 -194l134 26l87 -159l-79 -136l158 -387l482 -5l639 409l104 99l205 -35l276 -391l391 -80l117 108l-104 144l44 311l319 261l95 -17l260 -291l334 14l230 213l44 150l302 318l186 -42l-84 189l222 111l234 317l478 86l83 173l152 3l249 -411l168 124l38 184l-155 165l271 398l222 103v189l244 22l263 249l255 -91l207 245l229 89l588 338l5 170l398 589l-84 246l301 68l184 -30l220 81l101 -88l297 51l364 215l-77 142l288 329l399 -2l131 140l411 4l200 -175l176 -33l280 -253l32 -166l204 15l96 -116l497 -116l182 -251l175 58l243 -85l127 -182l-107 -296l296 -309l98 -175l-190 -141l-506 -82l-645 -299l-452 -403l-343 -605l28 -168l405 -544l156 -391l-180 -274l-15 -194l-159 -74l-87 90l-606 -283l155 -21l61 -211l-251 -46l31 -270l-331 -240l-386 -97l68 -266l-100 -90l-310 -35l-72 -274l169 -56l485 143l723 -74l115 209l153 -87l-1 -230l410 -259l34 -257l-97 -161l143 -367l12 -300l-161 -209l76 -112l-92 -204l420 -49l-47 -337l225 -247l196 119l143 -111l-140 -81l48 -270l356 17l171 -222l319 -144l309 25l132 231l241 75l270 290l342 184l492 172l194 159l316 -68l114 204l344 85l-71 163l358 -47l-68 149l286 175l366 122l-278 380l276 160l10 706l182 387l329 -119l42 237l-56 207l261 165l206 -40l513 -220l338 84l167 298l-103 104l109 91l-9 399l59 114l295 81l812 12l520 -256l213 144l-141 213l375 322l188 -262l143 64l402 24l248 -42l179 71l317 -23l128 -182l142 55l204 -166l233 -35l243 218l455 68l191 -74l255 178l21 204l459 67l74 -40l479 133l440 288l229 22l183 134l112 -138l526 265l237 278l202 32l373 -109l353 189l-154 161l154 411l-228 -16l179 363l256 681l183 60l257 228l177 -189l797 311l3 171l207 50l-31 123l260 -22l324 241l281 102l490 -130l88 -101l188 98l651 -175l363 68l410 -271l268 -277l184 -100l-58 -253l59 -190l235 -309l281 102l153 -132l301 54l199 -116l94 100l242 -107Z M-323970 -38329l20 -170l-306 -273l-97 76l-322 -73l257 259l448 181Z" centroide="-379982.8345870305,-83260.48015225369"/><path class="27" d="M-351525 -89138l-144 -209l-142 -427l-347 -297l-230 -419l-2 -183l-182 -231l-127 -322l-114 -40l-32 -232l-105 -67l-93 -340l-151 -79l-120 -258l-220 -302l-333 -317l-121 -182l-584 -382l-363 -444l-41 -328l-158 -206l-111 -16l-548 -599l-127 -285l-132 -11l-113 -168l-334 -193l-368 -463l-105 -213l16 -301l-140 -8l-143 -186l-69 136l-247 -71l-573 -541l-421 -559l-348 -521l-130 -297l-325 -292l-394 -667l-306 -397l-171 -332l-368 -468l-296 -94l-443 -662l-74 53l-230 -128l-216 -308l-323 -231l-520 -487l-228 -292l-100 -227l84 -307l-269 -260l-221 -363l-426 -832l-85 -10l-366 750l-283 186l-513 -261l-65 120l-281 -92l-186 105l15 355l-62 112l20 433l-230 277l-22 145l-344 311l-130 44l-222 -183l-244 -51l-361 106l-260 337l-671 121l-213 148l-113 186l-17 228l-283 165l-428 152l-347 603l-47 201l27 313l-75 218l-309 221l-430 -137l-301 155l-539 516l-311 211l-826 48l-214 358l-285 293l-357 105l-335 314l-429 115l-202 146l-560 161l-267 -4l-715 85l-837 529l-152 293l-409 253l-310 55l-425 -128l-63 157l-267 300l-701 449l-41 82l-247 -92l-391 149l-331 67l-139 123l53 158l-242 293l-210 14l-256 122l-90 152l-356 50l-416 -73l-262 176l-214 60l83 341l-113 221l-320 339l345 328l235 57l222 286l10 203l124 241l156 91l361 364l262 -15l365 97l38 90l321 2l152 77l73 233l163 130l172 312l499 451l82 196l265 153l140 218l128 456l-73 64l132 176l-53 202l290 128l119 163l294 131l139 -299l94 -34l126 -281l155 -142l51 -227l269 -299l-279 -95l177 -132l241 115l197 -181l282 160l144 190l398 -16l100 95l472 -83l64 -183l237 -108l521 -82l579 -473l309 -394l103 8l352 -564l352 -302l183 -465l-56 -146l360 247l386 -228l-85 -136l39 -239l344 157l135 191l258 -54l335 -354l-48 -156l144 -175l233 -9l209 -369l243 -69l236 -217l250 113l-80 143l131 120l-13 164l130 312l462 275l296 -199l761 170l724 -249l189 -169l259 -11l99 -126l197 33l85 -171l399 93l-53 389l187 100l618 201l42 222l110 -35l443 316l97 -165l463 119l267 5l276 309l266 129l302 66l75 257l-96 378l304 -11l145 301l192 65l42 202l468 40l245 90l229 347l-203 155l4 299l420 127l184 255l374 74l638 67l201 157l183 9l128 234l506 23l117 -129l234 15l29 129l150 -29l128 127l182 -214l-61 -285l346 -196l346 124l425 81l149 162l242 -8l184 169l183 45l280 244l497 187l220 -116l315 120l-25 -119l173 -138l382 58l167 -136l1069 -267l349 -107l149 45l264 -61l402 -17l187 -233Z" centroide="-366247.2353684908,-95139.71116640436"/><path class="28" d="M-363938 -105003l-74 -174l-344 -34l-620 -173l-580 -219l-590 -259l-661 -476l-483 -189l-713 -445l-664 -590l-706 -753l-730 -924l-159 -258l-29 -229l-369 -408l-736 -1125l-126 -367l-557 -610l-398 -475l-212 -310l-318 -634l-127 -511l-165 -285l-112 28l-305 -102l-291 -342l-356 -269l-277 -99l-402 -10l-168 -242l-582 -29l-90 236l-158 -122l-467 232l-252 -516l-245 63l-24 220l-240 -127l-42 155l-175 -9l-110 135l-316 12l-212 77l-125 244l-399 277l134 239l-105 -34l-213 186l-84 -117l-159 102l23 160l-251 62l-67 -186l-438 377l122 34l-194 402l-155 487l168 217l-91 103l47 318l126 61l1 311l-225 -33l-223 171l-330 22l-147 331l22 235l-151 -6l-102 177l191 255l-215 270l-54 345l-184 79l-47 -117l-506 353l-117 218l53 190l-132 9l-105 199l-56 -93l-161 160l-91 331l42 422l-129 172l89 267l177 135l82 259l-79 210l73 184l318 121l313 -130l351 48l450 -23l178 86l29 136l257 -375l304 -260l182 24l1588 635l-164 1046l-15 351l184 442l-77 225l-378 545l56 237l138 31l-3 220l521 269l528 216l-67 155l-242 1212l-144 83l59 431l-52 149l-244 300l-171 426l-8 349l-115 240l-422 196l-401 29l-118 103l-301 -57l-120 100l-192 404l-93 90l240 565l-25 165l98 228l-311 127l-305 273l-97 266l-60 514l190 152l28 161l151 150l140 -51l29 152l-193 65l-311 327l30 229l186 157l-29 228l186 260l139 -123l331 -67l391 -149l247 92l41 -82l701 -449l267 -300l63 -157l425 128l310 -55l409 -253l152 -293l837 -529l715 -85l267 4l560 -161l202 -146l429 -115l335 -314l357 -105l285 -293l214 -358l826 -48l311 -211l539 -516l301 -155l430 137l309 -221l75 -218l-27 -313l47 -201l347 -603l428 -152l283 -165l17 -228l113 -186l213 -148l671 -121l260 -337l361 -106l244 51l222 183l130 -44l344 -311l22 -145l230 -277l-20 -433l62 -112l-15 -355l186 -105l281 92l65 -120l513 261l283 -186l366 -750Z" centroide="-374438.59468719596,-105847.13329499154"/><path class="25" d="M-348594 -69841l114 24l-130 -332l-60 314l76 -6Z M-349685 -64871l21 -924l37 -577l69 -285l215 -347l50 -385l-97 -152l201 -130l69 -604l122 -389l117 -179l317 -165l-101 -360l103 -364l-131 -65l14 -275l128 -203l189 268l-68 380l130 -38l47 -391l-42 -257l-123 -183l116 -233l-32 -211l124 -175l42 -271l240 -164l-19 -407l-92 -195l-22 -277l73 -367l-31 -347l80 -152l-60 -281l-114 -991l72 -140l-90 -133l38 -275l-173 -388l-71 17l-242 107l-94 -100l-199 116l-301 -54l-153 132l-281 -102l-235 309l-59 190l58 253l-184 100l-268 277l-410 271l-363 -68l-651 175l-188 -98l-88 101l-490 130l-281 -102l-324 -241l-260 22l31 -123l-207 -50l-3 -171l-797 -311l-177 189l-257 -228l-183 -60l-256 -681l-179 -363l228 16l-154 -411l154 -161l-353 -189l-373 109l-202 -32l-237 -278l-526 -265l-112 138l-183 -134l-229 -22l-440 -288l-479 -133l-74 40l-459 -67l-21 -204l-255 -178l-191 74l-455 -68l-243 -218l-233 35l-204 166l-142 -55l-128 182l-317 23l-179 -71l-248 42l-402 -24l-143 -64l-188 262l-375 -322l141 -213l-213 -144l-520 256l-812 -12l-295 -81l-59 -114l9 -399l-109 -91l103 -104l-167 -298l-338 -84l-513 220l-206 40l-261 -165l56 -207l-42 -237l-329 119l-182 -387l-10 -706l-276 -160l278 -380l-366 -122l-286 -175l68 -149l-358 47l71 -163l-344 -85l-114 -204l-316 68l-194 -159l-492 -172l-342 -184l-270 -290l-241 -75l-132 -231l-309 -25l-319 144l-171 222l-356 -17l-48 270l140 81l-143 111l-196 -119l-225 247l47 337l-420 49l92 204l-76 112l161 209l-12 300l-143 367l97 161l-34 257l-410 259l1 230l-153 87l-115 -209l-723 74l-485 -143l-169 56l72 274l310 35l100 90l-68 266l386 97l331 240l-31 270l251 46l-61 211l-155 21l606 283l87 -90l159 74l15 194l180 274l-156 391l-405 544l-28 168l343 605l452 403l645 299l506 82l190 141l-98 175l-296 309l107 296l-127 182l-243 85l-175 -58l-182 251l-497 116l-96 116l-204 -15l-32 166l-280 253l-176 33l-200 175l-411 -4l-131 -140l-399 2l-288 -329l77 -142l-364 -215l-297 -51l-101 88l-220 -81l-184 30l-301 -68l84 -246l-398 -589l-5 -170l-588 -338l-229 -89l-207 -245l-255 91l-263 -249l-244 -22v-189l-222 -103l-271 -398l155 -165l-38 -184l-168 -124l-249 411l-152 -3l-83 -173l-478 -86l-234 -317l-222 -111l84 -189l-186 42l-302 -318l-44 -150l-230 -213l-334 -14l-260 291l-95 17l-319 -261l-44 -311l104 -144l-117 -108l-391 80l-276 391l-205 35l-104 -99l-639 -409l-482 5l-158 387l79 136l-87 159l-134 -26l146 194l-137 168l38 121l-146 226l-180 -12l-128 178l-248 -303l-217 -70l-56 -160l-475 123l-69 -127l-318 -80l-8 -112l-284 -46l-182 56l-207 -76l-142 100l-119 -90l-176 162l-184 438l-440 352l-168 254l-284 131l41 353l222 45l336 166l93 636l151 146l-141 273l416 25l-25 130l206 97l-104 193l167 346l304 488l-11 177l151 207l-83 281l-92 21l-68 241l-242 -89l-323 182l-95 388l-204 79l-426 -67l113 210l-9 382l210 385l-208 253l74 194l-200 75l-19 113l-733 357l229 190l-219 219l83 122l-5 366l260 67l548 350l25 257l211 244l158 74l-30 115l221 -4l-330 410l-237 443l5 107l212 241l50 189l-100 120l103 263l175 114l-138 224l308 439l-9 235l426 446l162 374l354 270l-105 128l-154 -93l-272 -19l-299 124l94 135l194 33l105 193l299 139l284 -144l277 223l182 37l-302 -315l35 -378l295 65l295 -212l243 46l174 -129l118 -337l116 -58l282 38l187 -292l165 2l88 -185l273 205l197 44l412 -75l88 -103h320l120 72l122 -271l185 -42l199 145l18 146l253 308l267 194l24 -269l282 20l-70 213l62 196l426 49l29 173l258 -189l162 29l245 215l113 -5l27 360l287 -102l173 113l78 413l173 55l-76 102l136 144l456 -6l-66 192l97 202l-149 70l150 96l-140 49l226 169l107 255l362 116l330 -132l264 12l83 95l385 58l303 186l297 -105l36 131l534 12l240 67l50 249l280 111l338 8l98 226l279 -9l187 190l403 174l230 -57l160 273l246 9l92 -145l205 32l266 -141l86 -573l-81 -319l181 -103l-173 -277l-193 -41l-80 -215l-327 -74l-363 -385l-26 -282l-366 21l-116 -51l-91 -235l-329 -158l-140 -221l-2 -251l-110 -104l-72 -404l145 -170l-97 -157l-48 -572l-234 -231l-456 5l-176 -151l75 -167l-55 -408l29 -322l113 -225l-185 -501l773 129l689 -35l242 117l305 -50l-64 -191l262 -191l-100 -346l161 -127l27 -316l207 -136l418 -15l389 264l261 342l76 -17l607 178l555 397l262 -121l84 -486l167 -47l-45 -153l197 178l339 190l684 226l623 -560l33 -517l393 24l-148 -432l-124 -198l-92 -365l120 -202l360 -267l93 81l220 487l498 -79l325 15l370 576l-61 173l139 167l150 -23l160 177l192 74l86 404l-34 236l-230 190l-164 37l-145 236l112 125l57 291l187 470l-15 194l107 53l421 -222l112 -178l247 85l-64 611l-293 164l-94 253l-448 219l-52 491l202 446l109 493l672 -49l381 691l319 -160l490 266l101 3l237 -258l31 -316l-221 -361l36 -180l441 -99l14 -328l612 49l448 70l336 -38l301 240l190 -58l243 -333l199 -78l115 -290l612 -120l1808 109l372 125l191 1l251 216l218 27l433 -174l128 34l235 -279l290 -30l263 141l421 -104l231 97l135 -101l342 -14l478 -237l338 -324l562 5l387 111l176 141l152 -291l342 -105l234 55l221 229l108 247l170 75l379 -301l291 223l365 40l235 143Z" centroide="-368320.7047314066,-71208.94496151916"/><path class="29" d="M-386548 -180424l-130 100l143 81l-13 -181Z M-386816 -180093h0h0h0Z M-386474 -179955h0h0h0Z M-386566 -179818h0h0h0Z M-386427 -179720h0h0h0Z M-386534 -179714h0h0h0Z M-386513 -179465l-116 111l223 83l-107 -194Z M-382375 -93297l320 -339l113 -221l-83 -341l214 -60l262 -176l416 73l356 -50l90 -152l256 -122l210 -14l242 -293l-53 -158l-186 -260l29 -228l-186 -157l-30 -229l311 -327l193 -65l-29 -152l-140 51l-151 -150l-28 -161l-190 -152l60 -514l97 -266l305 -273l311 -127l-98 -228l25 -165l-240 -565l93 -90l192 -404l120 -100l301 57l118 -103l401 -29l422 -196l115 -240l8 -349l171 -426l244 -300l52 -149l-59 -431l144 -83l242 -1212l67 -155l-528 -216l-521 -269l3 -220l-138 -31l-56 -237l378 -545l77 -225l-184 -442l15 -351l164 -1046l-1588 -635l-182 -24l-304 260l-257 375l-29 -136l-178 -86l-450 23l-351 -48l-313 130l-318 -121l-73 -184l79 -210l-82 -259l-177 -135l-89 -267l129 -172l-42 -422l91 -331l161 -160l56 93l105 -199l132 -9l-53 -190l117 -218l506 -353l47 117l184 -79l54 -345l215 -270l-191 -255l102 -177l151 6l-22 -235l147 -331l330 -22l223 -171l225 33l-1 -311l-126 -61l-47 -318l91 -103l-168 -217l155 -487l194 -402l-122 -34l438 -377l67 186l251 -62l-23 -160l159 -102l84 117l213 -186l105 34l-134 -239l399 -277l125 -244l212 -77l316 -12l110 -135l175 9l42 -155l240 127l24 -220l245 -63l252 516l467 -232l158 122l90 -236l582 29l168 242l402 10l277 99l356 269l291 342l305 102l-50 -202l-426 -431l-219 -356l-1178 -2319l-562 -1272l-339 -699l-857 -1596l-618 -1026l-729 -953l-441 -672l-267 -325l-631 -930l-282 -574l-262 -150l-141 -179l-36 -211l-583 -544l-1409 -1662l-358 -279l-358 -460l-370 -305l-114 63l-232 -58l-431 -277l-381 -309l-506 50l-1248 -54l-81 -160l-203 -66l-409 -235l-229 -286l-105 -15l-152 -266l-416 -297l-415 -154l-199 -212l-661 -352l-216 -340l-95 -253l-54 -458l30 -274l209 -457l277 241l136 -125l-9 -409l163 -233l-229 -513l-166 -116l-76 -452l53 -172l133 -10l74 -191l165 -1l-141 -219l170 -39v-338l-281 -174l-180 161l-151 -136l-200 -46l54 -140l-194 -208l-175 -567l66 -341l138 -291l523 -772l8 -316l-160 -589l-109 -819l-115 -282l-234 -866l-46 -728l106 -93l21 -235l-98 -140l-237 -925l-210 -1267l-118 -342l-164 -704l-8 -849l133 -538l206 -98l68 -199l-5 -432l59 -742l207 -634l22 -687l-9 -1721l64 -688l44 -105l168 -997l158 -527l114 -652l-3 -667l55 -630l149 -567l80 -39l156 -461l292 -625l128 -360l-284 -538l-352 -1019l-147 -309l-197 -561l-34 -265l89 -257l-279 -591l-157 -86l-246 -295l-69 -539l34 -168l150 -112l-70 -209l45 -205l-293 -165l-220 -376l-19 -443l-213 -616l-24 -388l-88 -406l-1 -377l-99 -185l-24 -367l-316 -427l-74 -657l33 -525l310 -284l-120 -64l-293 -399l-30 -372l-153 -260l-34 -465l-113 -660l-123 -88l-151 -365l1 -746l-91 -461l117 -1031l171 -506l11 -900l-17 -541l94 -332l150 -266l321 -430l-162 -224l-367 -319l86 -108l-792 -816l-102 -193l18 -188l-1414 -540l-337 -228l-562 -609l-206 -330l-313 -611l-340 -445l-494 -863l-176 -541l-53 -371l-96 -136l-210 164l-3805 2421l-1529 982l-46 222l-329 182l-38 180l509 263l385 442l-75 156l-227 73l-17 262l-120 68l42 432l-101 184l-163 -9l-156 154l-244 -32l-152 233l-36 250l-238 131l-7 206l-236 288l-75 -323l-172 318l-250 -132l-214 266l76 308l-175 15l-156 -123l-167 105l-147 348l-139 140l61 313l-124 17l-256 284l4 135l-336 93l-233 219l-200 -70l-252 175l233 113l-53 357l119 107l-163 186l142 33l226 288l245 110l-142 112l-79 310l160 525l-187 67l-65 341l167 249l56 337l-148 238l117 242l144 575l295 214l188 454l48 300l122 105l199 -16l88 -125l248 12l109 -98l158 110l219 20l132 119l161 -247l172 -87l288 158l211 -89l156 408l192 146l-223 500l-557 -51l-194 165l84 47l261 464l67 296l-99 282l147 230l106 518l122 272l151 -9l262 164l212 -147l551 -68l47 148l-172 416l297 263l373 597l194 -269l182 64l39 262l164 93l130 301l77 354l292 259l55 185l117 10l117 -161l124 272l216 164l160 -2l-35 201l-156 199l373 425l151 67l4 309l-140 221l127 -32l274 310l-201 215l-69 264l-383 373l-135 49l205 238l-425 79l-59 -124l-164 68l-244 -42l-92 178l-304 102l-17 115l-209 32l-50 330l-84 21l-50 269l-123 -111l-323 1l-269 86l-83 -107l-14 419l-265 106l-74 -48l-239 351l-72 236l-314 -50l-130 -86l-520 -8l-96 -60l-195 112l-182 -100l-502 173l-74 271l-290 254l-227 -225l-222 88l-129 -158l10 -148l-238 24l-229 -64l-42 268l-247 39l-72 274l-250 252l-115 -120l-245 234l-193 71l-192 324l-316 -75l-117 -92l23 -207l-261 -93l-183 218l57 121l-388 338l-103 -19l-119 -343l-377 -115l-236 22l-118 309l-488 125l-149 -397l-280 -257h-302l-122 -100l-303 39l-194 -211l-234 -20l-210 -290l-572 231l-156 118l-220 -4l-161 -94l-285 62l-493 -39l-252 2444l-1430 1276l-3013 2716l-476 -158l-242 4l-33 -144l-212 -210l-313 -111l-42 -116l-209 -11l-412 168l-786 -169l-115 -108l-401 518l-266 165l-38 204l-181 119l-95 -137l-334 -60l-69 61l-240 -97l-148 -152l-152 112l-327 105l-252 239l-199 -194l-169 246l-215 -37l-496 160l-6 407l-324 36l-136 168l-421 228l-31 109l-259 43l-249 306l-170 70l-238 -205l-535 418l-129 9l-209 232l-97 -64l-239 179l-64 200l-418 104l-398 296l-71 117l-481 292l-469 464l-15 124l-385 97l-336 -33l-274 188l-188 -78l-109 97l-159 -173l-76 149l-359 177l-240 -7l-235 153l-327 -73l-374 18l-531 -195l-131 63l-429 -283l-186 -11l-439 -251l-182 12l-264 -232l-16 -196l-184 -20l125 -116l-76 -123l-348 -48l17 -97l-219 -90l-103 361l-321 140l-125 151l-288 -98l-419 141l-152 158l-238 60l-258 -29l97 104l-143 183l-292 -27l-77 82l-356 52l-480 153l-124 -21l-243 217l127 317l-40 245l-124 112l87 174l37 432l429 815l117 512l362 547l-160 -7l-86 124l-269 143l-123 -101l-69 131l-261 -37l-214 137l-92 -69l-348 151l-157 -11l-75 170l-367 67l-323 -149l-346 10l-94 123l-144 -50l-104 148l-251 -229l-49 179l-227 65l-51 -112l-362 144l-156 211l-12 -116l-226 43l-56 -109l-258 49l-303 -66l-141 129l-241 -91l-149 -197l-341 -113l-391 -62l-102 -162l-249 -79l-245 -179l-226 60l-297 -91l-22 -88l-234 -8l-330 -268l-116 27l-227 -241l-254 -62l-4 -214l-273 4l-147 -330l-116 58l-366 -278l-449 -161l-164 -153l-225 33l98 -134l-116 -48l107 -213l-238 -76l-210 -464l-404 -99l16 -101l-730 -323l-148 -222l-446 -126l-138 -190l-109 -314l-307 -221l-405 55l-357 128l-23 -67l-313 -34l-237 -210l-127 -208l-168 -30l-157 -220l-143 -66l31 -143l-160 41l-164 -242l-442 -182l-66 -197l-414 -330l-250 8l-227 -321l-130 44l-191 -104l-83 144l-223 -72l-155 154l-306 -67l1 -107l-268 -200l-312 -458l-332 -71l20 -201l-173 -293l-240 -151l-214 -27l-31 -166l-248 -88l-428 83l-361 -36l-96 -210l-372 -215l-466 255l-372 -73l-158 -132l-127 -421l-428 -43l-113 -307l-170 -196l29 -86l-244 -55l-153 167l-65 312l-177 119l18 139l171 -17l189 171l310 118l40 456l153 40l164 419l370 354l2 322l88 390l-298 382l-124 77l44 175l-337 276l49 180l-202 253l311 149l147 281l-5 467l58 214l-47 186l-231 182l49 183l332 43l-34 237l78 211l-140 137l157 288l-38 232l84 199l-203 93l38 337l-191 180l155 349l-165 138l111 110l74 -196l180 -39l230 74l321 193l-4 204l140 112l-14 278l-165 -35l-240 253l-62 334l-158 144l-171 -27l13 175l-336 45l-39 122l-317 135l81 221l-105 169l-278 -121l-255 210l-14 243l-123 66l-209 -67l-343 86l-122 253l-385 193l-294 93l180 41l225 242l-69 218l183 218l-49 520l-480 278l47 436l250 431l34 139l-117 126l-242 42l70 203l-199 133l159 112l430 146l-136 246l-202 -31l-73 146l256 159l7 168l-232 116l195 314l288 277l256 122l238 232l-205 270l-441 -14l-102 144l-5 328l206 212l-117 191l238 158l-193 312l-164 62l278 275l439 168l364 87l216 166l174 262l466 233l63 365l-217 114l-488 -230l-103 18l-448 -279l-373 -100l-132 31l-194 -190l-417 -116l-93 332l-272 137l169 191l4 282l-316 8l257 473l26 212l-123 81l59 211l146 38l-16 215l-130 54l-145 247l212 236l209 327l73 285l385 196l144 -88l946 427l142 359l-25 76l-248 86l-614 -173l-258 -148l-406 91l-379 -145l119 262l-48 134l130 277l-82 201l294 247l-175 288l-24 224l83 86l-43 259l134 142l9 179l-217 117l-58 154l363 348l-346 221l175 390l-67 80l144 159l67 225l571 173l411 17l87 147l-101 183l45 204l-293 -23l-336 -188l-362 40l90 438l-173 358l-279 -50l-122 98l194 288l-272 228l-161 36l-84 144l-150 8l27 205l245 85l-42 103l-450 83l75 263l-140 125l206 233l-93 289l-214 50l209 592l19 364l-159 44l-38 227l93 114l-192 194l23 141l218 108l175 340l349 256l258 66l475 17l374 172l180 9l213 285l-99 155l-570 -172l-468 167l-418 -107l-478 280l12 320l180 -56l44 200l187 148l-38 179l128 142l-265 214l-146 -76l-18 158l316 55l256 362l150 113l-76 312l-135 169l35 174l633 24l265 -199l369 -110l308 -12l361 136l310 7l3 205l-404 179l-314 -30l-79 79l-207 -68l-264 104l-127 246l-873 317l-328 -54l-138 92l-326 8l-154 -74l-313 250l-386 2l-421 335l-68 175l-13 435l-207 142l-54 309l-273 81l-223 283l-132 516l174 240l-100 95l276 92l369 201l570 216l216 219l132 270l58 638l258 564l178 219l17 138l465 399l313 205l59 109l327 192l-132 457l171 407l307 90l203 177l12 291l-264 81l622 412l11 316l-140 274l248 205l403 151l261 38l172 144l248 13l667 288l458 385l343 193l814 298l135 313l31 851l334 184l504 45l211 343l34 167l238 404l-32 710l-240 304l338 2l427 286l443 189l238 -140l142 -326l-64 -264l147 -372l307 -188l38 -397l80 -132l411 -255l164 -232l311 -317l-31 -436l104 -185l225 -127l-43 -179l-309 -254l-163 -210l93 -161l-82 -265l96 -248l-6 -388l185 -283l336 -78l139 -216l132 -590l284 -233l444 -115l169 -92l111 -356l114 -106l267 51l13 -116l582 -102l432 -16l113 -61l320 64l217 -109l333 -319l232 -6l639 -448l467 263l248 192l125 -179l388 349l-20 196l224 380l295 51l11 158l428 259l339 -61l179 173l13 201l-73 434l135 104h252l174 99l231 343l118 57l309 -34l194 -168l269 -28l276 146l212 285l236 -57l359 116l375 427l217 93l270 -168l159 -312l236 -264l214 -46l268 126l423 -177l105 -100l312 57l237 400l337 111l146 347l113 451l250 331l-97 285l80 322l296 24l212 -213l402 -48l205 94l15 426l197 297l581 523l-3 521l525 584l147 404l41 306l-72 220l139 240l393 22l270 -48l4 264l231 201l43 397l-318 170l-56 130l122 194l-25 161l-154 57l132 275l176 58l122 307l128 123l-124 199l-324 193l-663 277l-214 143l-127 347l32 226l-340 576l-135 100l80 195l-87 53l11 266l-110 240l147 368l215 333l169 123l152 249l329 207l622 144l675 481l426 512l419 129l396 349l285 117l309 -53l154 -115l276 -366l188 -347l229 -200l210 -10l174 -194l219 -116l80 -191l420 80l338 118l155 -205l207 106l117 309l244 -71l174 145l142 -138l322 -142l114 53l42 -240l708 169l150 -64l155 -305l-58 -314l184 -508l397 -60l273 -349l256 105l230 -94l-22 -155l98 -432l506 1l122 299l182 99l234 250l-37 237l399 -184l232 70l329 4l335 433l355 20l401 -54l217 68l18 253l98 108l271 -34l190 113l169 416l538 273l95 322l293 165l98 167l471 62l345 262l280 -85l270 75l449 -20l395 87l222 187l542 93l188 -154l276 173l168 -150l416 -133l122 196l167 40l144 160l326 -49l205 582l152 144l22 216l196 191l430 307l64 284l2 419l72 144l349 -4l154 62l39 177l360 40l277 286l357 24l48 -153l207 98l-9 189l141 139l86 241l154 112l-32 162l227 323l157 8l375 441l104 -35l303 782l127 171l229 -4l240 -200l292 3l269 -80l153 135l253 31l124 142l488 -66l638 72l-163 -394l256 -371l671 -54l114 -229l-65 -262l116 -91l194 153l213 53l327 -215l250 95l249 -356l14 -180l138 -266l150 -77l49 -247l98 -44l-6 -280l178 -301l91 -276l42 -417l169 -185l474 -66l-10 -137l252 -54l227 -168l248 32l177 -214l-25 -271l-247 -473l141 -242l-68 -207l-213 -85l-115 -190l-194 93l-170 -185l192 -218l-92 -342l34 -319l-219 -103l49 -125l-167 -287l269 106l277 -21l408 -213l607 -153l210 129l345 56l200 218l43 182l301 169l430 -134l117 141l167 382l212 162l269 -201l371 -29l204 245l-36 155l183 478l95 118l90 442l144 456l-78 337l72 346l136 349l342 281l424 -175l336 -355l331 -30l525 321l118 152l676 19l399 126l511 669l181 158l144 291l-49 348l-219 378l83 354l300 92l431 61l311 -57l410 251l527 -55l217 146l-5 395l-192 649l42 197l788 36l838 447l113 101l293 61l244 143l91 189l167 -2l195 212l296 87l219 -44l193 -207l587 -52l113 -131l117 -384l224 -251l-56 -72l13 -366l169 -262l475 40l135 138l235 -200l1011 -208l435 -276l219 -320l255 -117l240 89l598 119l518 -23l194 -73l573 -514l331 -174l129 -407l-2 -289l195 -399l390 -150l251 294l27 641l176 367l195 262l186 77l394 -79l326 -195l101 -142l-96 -375l-340 -261l-64 -197l162 -339l545 -449l455 -109l411 363l389 109l208 -238l128 -333l-311 -229l8 -212l157 -55l-168 -201l27 -242l299 -311l87 -290l-75 -160l370 -733l130 -393Z" centroide="-417208.00686265115,-124750.93292976121"/><path class="24" d="M-372532 -48315l316 -502l176 -195l400 -329l367 -31l115 104l338 -30l327 -199l132 -11l368 197l182 -29l201 135l394 -272l401 -13l174 -125l533 -667l115 -105l493 -204l174 -14l96 -148l207 74l108 -253l251 78l379 -37l67 121l630 -69l318 62l156 133l281 23l457 -62l693 -221l236 82l363 -206l178 147l348 -61l1041 -12l274 50l346 199l518 182l565 109l325 -28l652 -231l548 -76l458 -10l254 -132l603 -133l670 -189l131 89l467 -228l809 -228l290 -372l426 -265l221 -247l232 -363l188 -758l128 -160l199 -26l114 -152l-5 -179l169 -169l41 -299l164 -223l120 -14l7 -256l232 -635l112 -106l-15 -349l99 -180l32 -485l213 -202l-70 -144l-25 -338l81 -50l101 -382l53 -748l260 -202l-43 -361l111 -386l166 -42l247 -404l-36 -416l113 -59l-29 -565l55 -700l111 -79l113 -322l278 -49l80 -127l-13 -248l61 -464l-20 -189l156 -391l251 -36l169 -473l75 -676l-235 -143l-365 -40l-291 -223l-379 301l-170 -75l-108 -247l-221 -229l-234 -55l-342 105l-152 291l-176 -141l-387 -111l-562 -5l-338 324l-478 237l-342 14l-135 101l-231 -97l-421 104l-263 -141l-290 30l-235 279l-128 -34l-433 174l-218 -27l-251 -216l-191 -1l-372 -125l-1808 -109l-612 120l-115 290l-199 78l-243 333l-190 58l-301 -240l-336 38l-448 -70l-612 -49l-14 328l-441 99l-36 180l221 361l-31 316l-237 258l-101 -3l-490 -266l-319 160l-381 -691l-672 49l-109 -493l-202 -446l52 -491l448 -219l94 -253l293 -164l64 -611l-247 -85l-112 178l-421 222l-107 -53l15 -194l-187 -470l-57 -291l-112 -125l145 -236l164 -37l230 -190l34 -236l-86 -404l-192 -74l-160 -177l-150 23l-139 -167l61 -173l-370 -576l-325 -15l-498 79l-220 -487l-93 -81l-360 267l-120 202l92 365l124 198l148 432l-393 -24l-33 517l-623 560l-684 -226l-339 -190l-197 -178l45 153l-167 47l-84 486l-262 121l-555 -397l-607 -178l-76 17l-261 -342l-389 -264l-418 15l-207 136l-27 316l-161 127l100 346l-262 191l64 191l-305 50l-242 -117l-689 35l-773 -129l185 501l-113 225l-29 322l55 408l-75 167l176 151l456 -5l234 231l48 572l97 157l-145 170l72 404l110 104l2 251l140 221l329 158l91 235l116 51l366 -21l26 282l363 385l327 74l80 215l193 41l173 277l-181 103l81 319l-86 573l-266 141l-205 -32l-92 145l-246 -9l-160 -273l-230 57l-403 -174l-187 -190l-279 9l-98 -226l-338 -8l-280 -111l-50 -249l-240 -67l-534 -12l-36 -131l-297 105l-303 -186l-385 -58l-83 -95l-264 -12l-330 132l-362 -116l-107 -255l-226 -169l140 -49l-150 -96l149 -70l-97 -202l66 -192l-456 6l-136 -144l76 -102l-173 -55l-78 -413l-173 -113l-287 102l-27 -360l-113 5l-245 -215l-162 -29l-258 189l-29 -173l-426 -49l-62 -196l70 -213l-282 -20l-24 269l-267 -194l-253 -308l-18 -146l-199 -145l-185 42l-122 271l-120 -72h-320l-88 103l-412 75l-197 -44l-273 -205l-88 185l-165 -2l-187 292l-282 -38l-116 58l-118 337l-174 129l-243 -46l-295 212l-295 -65l-35 378l302 315l-182 -37l-277 -223l-284 144l-299 -139l-145 82l-50 282l153 148l-128 248l251 163l86 179l175 63l86 161l-95 93l20 204l259 24l6 113l253 226l-10 126l144 321l213 155l-66 116l342 269l313 49l49 -260l117 -90l454 114l133 -100l309 183l231 256l-1 312l81 126l425 373l373 155l15 199l407 449l37 489l184 283l389 426l146 317l-283 68l-119 -71l52 604l286 240l167 67l227 452l156 89l83 296l394 191l160 314l324 46l100 199l27 285l291 456l-33 326l163 340l643 452l-87 261l89 365l-70 178l136 273l114 475l315 390l84 300l146 95l317 60l385 1288l1939 455l1931 493Z" centroide="-366732.76419068035,-58395.14915220694"/></g></svg>
